<?xml version="1.0" encoding="UTF-8" standalone="no"?>
<svg
   xmlns:dc="http://purl.org/dc/elements/1.1/"
   xmlns:cc="http://creativecommons.org/ns#"
   xmlns:rdf="http://www.w3.org/1999/02/22-rdf-syntax-ns#"
   xmlns:svg="http://www.w3.org/2000/svg"
   xmlns="http://www.w3.org/2000/svg"
   viewBox="0 0 2560 2560"
   height="2560"
   width="2560"
   xml:space="preserve"
   id="svg10"
   version="1.1"><metadata
     id="metadata16"><rdf:RDF><cc:Work
         rdf:about=""><dc:format>image/svg+xml</dc:format><dc:type
           rdf:resource="http://purl.org/dc/dcmitype/StillImage" /><dc:title></dc:title></cc:Work></rdf:RDF></metadata><defs
     id="defs14"><clipPath
       id="clipPath26"
       clipPathUnits="userSpaceOnUse"><path
         id="path24"
         d="M 0,1920 H 1920 V 0 H 0 Z" /></clipPath></defs><g
     transform="matrix(1.3333333,0,0,-1.3333333,0,2560)"
     id="g18"><g
       id="g20"><g
         clip-path="url(#clipPath26)"
         id="g22"><g
           transform="translate(474.8911,947.6953)"
           id="g28"><path
             id="path30"
             style="fill:none;stroke:#050505;stroke-width:15;stroke-linecap:butt;stroke-linejoin:miter;stroke-miterlimit:10;stroke-dasharray:none;stroke-opacity:1"
             d="m 0,0 c 0,267.918 217.191,485.109 485.109,485.109 267.918,0 485.108,-217.191 485.108,-485.109 0,-267.918 -217.19,-485.108 -485.108,-485.108 C 217.191,-485.108 0,-267.918 0,0 Z" /></g><g
           transform="translate(821.4775,1230.7021)"
           id="g32"><path
             id="path34"
             style="fill:none;stroke:#000000;stroke-width:25;stroke-linecap:round;stroke-linejoin:round;stroke-miterlimit:4;stroke-dasharray:none;stroke-opacity:1"
             d="M 0,0 C -0.748,0.064 -1.501,0.075 -2.251,0.039 -3.038,0.001 -3.822,-0.087 -4.6,-0.214 -5.422,-0.348 -6.237,-0.526 -7.042,-0.74 -7.9,-0.967 -8.748,-1.234 -9.585,-1.531 c -0.852,-0.303 -1.693,-0.637 -2.523,-0.997 -0.93,-0.403 -1.846,-0.838 -2.749,-1.298 -0.97,-0.494 -1.924,-1.017 -2.865,-1.563 -1.018,-0.591 -2.02,-1.209 -3.008,-1.849 -1.13,-0.731 -2.242,-1.491 -3.341,-2.267 -1.075,-0.759 -2.137,-1.533 -3.196,-2.314 -1.108,-0.818 -2.21,-1.643 -3.311,-2.471 -1.897,-1.423 -3.791,-2.852 -5.701,-4.259 -2.483,-1.83 -4.992,-3.625 -7.551,-5.347 -1.321,-0.889 -2.655,-1.759 -4.005,-2.603 -1.39,-0.869 -2.797,-1.71 -4.219,-2.524 -2.979,-1.706 -6.025,-3.293 -9.102,-4.813 -3.347,-1.653 -6.732,-3.228 -10.131,-4.771 -1.831,-0.831 -3.666,-1.653 -5.502,-2.472 -2.638,-1.175 -5.279,-2.343 -7.919,-3.516 -2.053,-0.912 -4.105,-1.827 -6.154,-2.749 -1.531,-0.688 -3.06,-1.38 -4.586,-2.077 -2.271,-1.037 -4.536,-2.086 -6.792,-3.156 -4.815,-2.283 -9.587,-4.657 -14.291,-7.162 -5.097,-2.714 -10.114,-5.581 -15.023,-8.623 -5.335,-3.305 -10.543,-6.817 -15.597,-10.537 -2.232,-1.644 -4.434,-3.329 -6.605,-5.052 -1.359,-1.078 -2.704,-2.172 -4.039,-3.279 -2.714,-2.251 -5.381,-4.56 -8.003,-6.918 -2.671,-2.4 -5.295,-4.851 -7.876,-7.347 -2.629,-2.542 -5.213,-5.13 -7.753,-7.762 -2.589,-2.681 -5.132,-5.407 -7.629,-8.174 -2.507,-2.778 -4.968,-5.597 -7.381,-8.458 -2.387,-2.828 -4.726,-5.696 -7.016,-8.604 -2.267,-2.878 -4.484,-5.794 -6.65,-8.749 -2.145,-2.928 -4.237,-5.895 -6.27,-8.903 -3.949,-5.841 -7.671,-11.838 -11.096,-18.002 -1.677,-3.017 -3.281,-6.074 -4.808,-9.169 -1.519,-3.079 -2.959,-6.195 -4.315,-9.349 -1.356,-3.152 -2.628,-6.342 -3.81,-9.564 -1.189,-3.238 -2.287,-6.509 -3.293,-9.809 -1.017,-3.335 -1.939,-6.699 -2.765,-10.087 -0.847,-3.47 -1.593,-6.965 -2.243,-10.478 -0.66,-3.572 -1.22,-7.163 -1.685,-10.766 -0.466,-3.62 -0.837,-7.254 -1.114,-10.894 -0.279,-3.672 -0.463,-7.352 -0.552,-11.034 -0.091,-3.729 -0.084,-7.461 0.019,-11.19 0.104,-3.734 0.306,-7.464 0.607,-11.187 0.298,-3.683 0.694,-7.358 1.191,-11.02 0.494,-3.64 1.088,-7.267 1.787,-10.872 0.699,-3.601 1.502,-7.18 2.414,-10.733 1.778,-6.923 3.966,-13.741 6.551,-20.405 2.485,-6.406 5.338,-12.67 8.568,-18.735 1.56,-2.929 3.209,-5.812 4.948,-8.638 1.674,-2.72 3.433,-5.388 5.281,-7.992 1.785,-2.518 3.653,-4.976 5.608,-7.363 1.641,-2.003 3.343,-3.954 5.11,-5.844 1.973,-2.112 4.028,-4.147 6.166,-6.091 2.088,-1.9 4.256,-3.713 6.497,-5.43 2.226,-1.705 4.525,-3.315 6.886,-4.829 2.384,-1.529 4.832,-2.959 7.328,-4.298 2.561,-1.372 5.174,-2.646 7.825,-3.836 2.746,-1.232 5.531,-2.374 8.345,-3.44 2.959,-1.122 5.949,-2.161 8.959,-3.139 3.324,-1.079 6.673,-2.082 10.037,-3.028 7.201,-2.027 14.473,-3.796 21.793,-5.338 8.38,-1.765 16.822,-3.231 25.3,-4.443 9.676,-1.385 19.399,-2.44 29.143,-3.221 11.088,-0.89 22.204,-1.424 33.325,-1.669 6.117,-0.136 12.235,-0.184 18.353,-0.152 6.341,0.031 12.681,0.147 19.019,0.344 6.506,0.202 13.009,0.491 19.507,0.867 6.617,0.383 13.229,0.858 19.832,1.431 6.775,0.588 13.541,1.28 20.293,2.092 6.384,0.768 12.756,1.643 19.107,2.646 6.124,0.968 12.229,2.055 18.303,3.293 5.763,1.174 11.497,2.484 17.185,3.975 4.906,1.286 9.776,2.707 14.595,4.287 4.865,1.596 9.677,3.354 14.413,5.297 4.424,1.815 8.782,3.792 13.048,5.952 4.034,2.042 7.985,4.248 11.827,6.632 3.988,2.475 7.857,5.142 11.571,8.011 3.172,2.451 6.232,5.05 9.154,7.797 2.805,2.637 5.484,5.411 8.016,8.313 2.463,2.824 4.789,5.77 6.959,8.824 2.123,2.988 4.101,6.079 5.926,9.257 1.801,3.135 3.455,6.355 4.965,9.64 1.5,3.265 2.858,6.596 4.083,9.975 1.225,3.38 2.316,6.808 3.287,10.27 0.774,2.761 1.471,5.542 2.1,8.34 0.793,3.53 1.475,7.084 2.063,10.653 0.594,3.601 1.092,7.216 1.51,10.841 0.425,3.685 0.767,7.38 1.043,11.08 0.279,3.729 0.492,7.465 0.648,11.202 0.155,3.727 0.253,7.457 0.293,11.187 0.041,3.721 0.024,7.443 -0.05,11.164 -0.074,3.713 -0.205,7.424 -0.395,11.133 -0.186,3.642 -0.431,7.281 -0.737,10.915 -0.295,3.51 -0.649,7.016 -1.067,10.514 -0.403,3.377 -0.867,6.747 -1.4,10.107 -0.515,3.238 -1.094,6.467 -1.75,9.68 -0.786,3.851 -1.684,7.68 -2.726,11.47 -0.767,2.793 -1.613,5.565 -2.548,8.308 -0.905,2.653 -1.893,5.279 -2.967,7.869 -1.056,2.544 -2.196,5.053 -3.414,7.524 -1.226,2.483 -2.533,4.927 -3.909,7.33 -1.417,2.471 -2.908,4.9 -4.459,7.288 -1.618,2.491 -3.3,4.938 -5.033,7.349 -1.832,2.551 -3.718,5.062 -5.644,7.544 -2.058,2.653 -4.16,5.271 -6.29,7.867 -2.256,2.748 -4.543,5.471 -6.85,8.176 -2.393,2.807 -4.808,5.595 -7.234,8.371 -2.468,2.825 -4.95,5.638 -7.439,8.445 -4.26,4.806 -8.54,9.596 -12.804,14.397 -2.368,2.665 -4.73,5.333 -7.081,8.012 -2.217,2.527 -4.422,5.063 -6.608,7.617 -1.025,1.196 -2.044,2.397 -3.058,3.604 -1.433,1.706 -2.854,3.424 -4.257,5.156 -1.704,2.103 -3.384,4.227 -5.03,6.377 -1.459,1.904 -2.891,3.829 -4.289,5.779 -1.245,1.736 -2.463,3.492 -3.643,5.272 -0.83,1.252 -1.641,2.516 -2.43,3.795 -0.91,1.474 -1.789,2.967 -2.627,4.483 -0.741,1.337 -1.449,2.692 -2.117,4.067 -0.592,1.221 -1.152,2.457 -1.67,3.711 -0.465,1.124 -0.896,2.262 -1.288,3.413 -0.354,1.044 -0.675,2.099 -0.966,3.162 -0.266,0.973 -0.505,1.953 -0.722,2.938 -0.2,0.906 -0.381,1.817 -0.551,2.73 -0.08,0.429 -0.158,0.858 -0.234,1.288 -0.098,0.553 -0.195,1.107 -0.292,1.66 -0.139,0.788 -0.28,1.576 -0.443,2.361 -0.077,0.378 -0.16,0.755 -0.25,1.131 -0.066,0.276 -0.134,0.551 -0.209,0.825 -0.201,0.744 -0.439,1.478 -0.734,2.19 -0.153,0.365 -0.321,0.724 -0.506,1.074 -0.192,0.359 -0.402,0.709 -0.633,1.044 -0.455,0.664 -0.989,1.274 -1.588,1.812 -0.291,0.262 -0.597,0.507 -0.917,0.734 -0.364,0.258 -0.745,0.494 -1.139,0.704 -0.66,0.351 -1.358,0.633 -2.077,0.841 -0.707,0.206 -1.435,0.341 -2.168,0.408 -0.727,0.066 -1.459,0.066 -2.185,0 -0.728,-0.066 -1.449,-0.197 -2.154,-0.39 -0.713,-0.195 -1.408,-0.453 -2.074,-0.772 -0.648,-0.311 -1.269,-0.679 -1.852,-1.1 -0.598,-0.432 -1.155,-0.919 -1.673,-1.443 -0.502,-0.509 -0.967,-1.053 -1.404,-1.618 -0.411,-0.531 -0.796,-1.08 -1.165,-1.64 -0.356,-0.541 -0.697,-1.092 -1.031,-1.646 -0.365,-0.605 -0.723,-1.213 -1.084,-1.819 -0.302,-0.508 -0.607,-1.014 -0.922,-1.514 -0.296,-0.467 -0.601,-0.93 -0.923,-1.381 -0.295,-0.414 -0.605,-0.818 -0.935,-1.206 -0.319,-0.374 -0.658,-0.732 -1.012,-1.075 -0.353,-0.342 -0.721,-0.668 -1.102,-0.978 -0.37,-0.3 -0.752,-0.584 -1.146,-0.852 -0.37,-0.252 -0.749,-0.489 -1.139,-0.708 -0.352,-0.198 -0.711,-0.38 -1.079,-0.546 -0.304,-0.136 -0.614,-0.26 -0.93,-0.365 -0.136,-0.044 -0.272,-0.085 -0.41,-0.122 -0.003,0.035 -0.007,0.069 -0.01,0.103 -0.015,0.165 -0.025,0.329 -0.031,0.494 -0.011,0.314 -0.011,0.629 -0.003,0.943 0.009,0.376 0.029,0.752 0.056,1.127 0.03,0.423 0.067,0.845 0.108,1.267 0.046,0.472 0.095,0.944 0.146,1.416 0.068,0.63 0.138,1.261 0.204,1.893 0.118,1.127 0.225,2.256 0.301,3.387 0.081,1.211 0.125,2.425 0.11,3.638 -0.015,1.266 -0.096,2.532 -0.274,3.785 -0.178,1.26 -0.453,2.507 -0.826,3.724 -0.364,1.184 -0.819,2.339 -1.369,3.449 -0.537,1.08 -1.163,2.117 -1.884,3.084 -0.355,0.476 -0.733,0.935 -1.134,1.373 -0.399,0.435 -0.821,0.85 -1.266,1.239 -0.444,0.389 -0.911,0.752 -1.399,1.084 -0.491,0.333 -1.003,0.635 -1.533,0.9 -1.058,0.528 -2.19,0.908 -3.352,1.126 -1.165,0.218 -2.361,0.273 -3.543,0.18 -0.599,-0.046 -1.195,-0.13 -1.784,-0.248 C 52.189,14.325 51.597,14.171 51.014,13.987 49.8,13.605 48.628,13.095 47.506,12.494 46.305,11.852 45.162,11.106 44.07,10.293 43.498,9.868 42.941,9.425 42.395,8.967 41.833,8.495 41.284,8.008 40.746,7.509 39.553,6.403 38.416,5.237 37.323,4.031 36.257,2.854 35.234,1.639 34.248,0.394 33.245,-0.873 32.281,-2.17 31.354,-3.494 30.893,-4.151 30.44,-4.816 29.997,-5.486 c -0.442,-0.667 -0.875,-1.339 -1.303,-2.015 -0.827,-1.309 -1.631,-2.632 -2.429,-3.958 -0.648,-1.076 -1.292,-2.154 -1.943,-3.228 -0.368,-0.605 -0.739,-1.21 -1.114,-1.812 -0.707,-1.132 -1.432,-2.254 -2.194,-3.35 -0.355,-0.509 -0.718,-1.013 -1.093,-1.507 -0.356,-0.47 -0.722,-0.932 -1.1,-1.383 -0.361,-0.432 -0.733,-0.855 -1.116,-1.268 -0.363,-0.391 -0.735,-0.773 -1.118,-1.144 -0.358,-0.347 -0.725,-0.683 -1.102,-1.009 -0.345,-0.298 -0.7,-0.586 -1.064,-0.861 -0.327,-0.247 -0.661,-0.482 -1.005,-0.704 -0.297,-0.192 -0.601,-0.372 -0.914,-0.537 -0.194,-0.103 -0.393,-0.2 -0.595,-0.287 -0.117,-0.051 -0.235,-0.098 -0.355,-0.142 -0.184,-0.067 -0.372,-0.125 -0.565,-0.166 -0.064,-0.013 -0.13,-0.025 -0.195,-0.033 -0.041,-0.005 -0.082,-0.009 -0.122,-0.01 -0.044,-0.002 -0.087,-0.001 -0.129,0.004 -0.012,0.001 -0.023,0.003 -0.035,0.007 -0.02,0.013 -0.037,0.032 -0.053,0.05 -0.021,0.025 -0.041,0.05 -0.06,0.076 -0.033,0.044 -0.062,0.091 -0.089,0.138 -0.086,0.151 -0.154,0.312 -0.211,0.476 -0.085,0.246 -0.147,0.499 -0.194,0.754 -0.062,0.335 -0.098,0.675 -0.117,1.016 -0.012,0.226 -0.017,0.453 -0.015,0.68 0.002,0.343 0.018,0.685 0.042,1.027 0.026,0.391 0.062,0.78 0.105,1.169 0.046,0.427 0.101,0.853 0.158,1.279 0.138,1.014 0.295,2.025 0.443,3.037 0.147,0.999 0.284,1.999 0.389,3.003 0.054,0.514 0.099,1.029 0.132,1.544 0.033,0.521 0.054,1.042 0.056,1.564 0.003,0.529 -0.013,1.057 -0.052,1.584 -0.04,0.532 -0.105,1.061 -0.197,1.587 -0.182,1.031 -0.473,2.046 -0.888,3.008 -0.413,0.957 -0.948,1.862 -1.6,2.674 C 8.027,-3.814 7.67,-3.43 7.287,-3.073 6.902,-2.715 6.49,-2.385 6.057,-2.085 5.621,-1.784 5.164,-1.513 4.69,-1.276 4.211,-1.037 3.716,-0.832 3.209,-0.66 2.173,-0.307 1.091,-0.094 0,0 Z" /></g><g
           transform="translate(820.8345,1223.269)"
           id="g36"><path
             id="path38"
             style="fill:#ffffff;fill-opacity:1;fill-rule:nonzero;stroke:none"
             d="M 0,0 C -0.354,0.031 -0.709,0.037 -1.063,0.026 -1.482,0.013 -1.899,-0.023 -2.314,-0.079 -2.793,-0.143 -3.27,-0.23 -3.742,-0.336 -4.278,-0.457 -4.81,-0.6 -5.336,-0.762 -6.116,-1 -6.883,-1.277 -7.639,-1.583 c -0.656,-0.264 -1.303,-0.548 -1.943,-0.85 -0.702,-0.331 -1.395,-0.681 -2.08,-1.046 -1.556,-0.832 -3.069,-1.741 -4.548,-2.704 -0.876,-0.57 -1.741,-1.16 -2.597,-1.761 -0.882,-0.619 -1.756,-1.249 -2.625,-1.885 -0.927,-0.679 -1.85,-1.365 -2.77,-2.054 -1.417,-1.06 -2.829,-2.125 -4.246,-3.186 -1.784,-1.335 -3.574,-2.662 -5.383,-3.964 -2.279,-1.64 -4.586,-3.241 -6.936,-4.779 -1.225,-0.801 -2.462,-1.585 -3.713,-2.348 -1.279,-0.78 -2.571,-1.539 -3.875,-2.276 -2.687,-1.52 -5.424,-2.951 -8.187,-4.327 -2.914,-1.451 -5.858,-2.84 -8.815,-4.199 -3.158,-1.451 -6.331,-2.868 -9.507,-4.28 -4.216,-1.873 -8.437,-3.737 -12.644,-5.63 -3.253,-1.462 -6.498,-2.943 -9.725,-4.462 -3.995,-1.881 -7.962,-3.819 -11.886,-5.845 -4.211,-2.175 -8.372,-4.45 -12.464,-6.842 -4.385,-2.563 -8.691,-5.259 -12.902,-8.098 -4.428,-2.985 -8.75,-6.128 -12.952,-9.423 -2.255,-1.769 -4.476,-3.583 -6.665,-5.433 -4.572,-3.863 -9.006,-7.889 -13.317,-12.041 -4.469,-4.304 -8.805,-8.744 -13.012,-13.303 -4.256,-4.614 -8.381,-9.348 -12.366,-14.198 -3.94,-4.795 -7.743,-9.701 -11.389,-14.723 -3.529,-4.862 -6.911,-9.831 -10.101,-14.922 -3.091,-4.932 -6.003,-9.979 -8.691,-15.143 -2.641,-5.074 -5.067,-10.261 -7.244,-15.55 -2.176,-5.289 -4.104,-10.68 -5.763,-16.152 -1.692,-5.576 -3.105,-11.237 -4.245,-16.951 -1.176,-5.896 -2.062,-11.849 -2.684,-17.828 -0.634,-6.108 -0.993,-12.243 -1.079,-18.382 -0.087,-6.184 0.101,-12.372 0.572,-18.539 0.468,-6.129 1.214,-12.238 2.259,-18.295 0.517,-2.993 1.106,-5.972 1.773,-8.934 0.66,-2.929 1.395,-5.841 2.205,-8.731 1.588,-5.665 3.462,-11.25 5.618,-16.723 2.079,-5.278 4.419,-10.454 7.027,-15.491 2.484,-4.794 5.21,-9.463 8.196,-13.961 1.425,-2.147 2.909,-4.255 4.455,-6.316 1.491,-1.986 3.04,-3.929 4.65,-5.82 1.955,-2.296 4,-4.514 6.143,-6.634 1.622,-1.605 3.3,-3.154 5.033,-4.639 1.703,-1.459 3.458,-2.856 5.263,-4.187 1.801,-1.33 3.652,-2.594 5.545,-3.791 1.92,-1.215 3.883,-2.361 5.881,-3.444 2.058,-1.115 4.152,-2.162 6.274,-3.149 2.211,-1.028 4.452,-1.99 6.715,-2.897 2.381,-0.954 4.786,-1.848 7.208,-2.693 2.565,-0.893 5.149,-1.732 7.745,-2.529 1.36,-0.417 2.723,-0.822 4.088,-1.218 2.378,-0.688 4.765,-1.346 7.159,-1.977 6.252,-1.647 12.554,-3.101 18.89,-4.385 7.138,-1.446 14.32,-2.676 21.528,-3.719 8.101,-1.171 16.237,-2.106 24.39,-2.841 9.14,-0.823 18.303,-1.392 27.474,-1.751 4.985,-0.194 9.973,-0.326 14.962,-0.4 5.245,-0.078 10.491,-0.093 15.737,-0.05 5.44,0.044 10.879,0.151 16.316,0.318 5.563,0.171 11.124,0.405 16.682,0.704 9.608,0.516 19.206,1.223 28.783,2.15 5.544,0.535 11.081,1.145 16.608,1.838 5.406,0.678 10.802,1.436 16.184,2.288 5.198,0.823 10.383,1.734 15.547,2.753 4.921,0.971 9.823,2.039 14.694,3.231 2.746,0.673 5.482,1.385 8.205,2.143 4.362,1.213 8.69,2.545 12.974,4.011 4.006,1.371 7.974,2.859 11.886,4.48 3.669,1.522 7.289,3.159 10.845,4.927 3.346,1.664 6.634,3.443 9.848,5.348 2.312,1.371 4.588,2.806 6.816,4.311 2.814,1.9 5.554,3.907 8.204,6.028 2.531,2.025 4.982,4.154 7.334,6.384 2.266,2.148 4.441,4.391 6.514,6.724 2.013,2.265 3.929,4.615 5.739,7.045 1.773,2.378 3.445,4.832 5.012,7.35 1.547,2.489 2.991,5.041 4.333,7.645 1.336,2.593 2.57,5.238 3.707,7.924 1.139,2.691 2.179,5.425 3.128,8.188 0.956,2.784 1.819,5.598 2.597,8.436 1.462,5.327 2.627,10.733 3.561,16.179 1.035,6.038 1.784,12.124 2.332,18.225 0.278,3.11 0.505,6.224 0.688,9.341 0.185,3.146 0.327,6.295 0.426,9.445 0.199,6.31 0.231,12.625 0.095,18.936 -0.134,6.191 -0.428,12.379 -0.9,18.554 -0.453,5.897 -1.066,11.781 -1.878,17.639 -0.385,2.777 -0.814,5.548 -1.295,8.309 -0.459,2.635 -0.966,5.261 -1.529,7.876 -0.633,2.945 -1.338,5.875 -2.132,8.781 -0.627,2.294 -1.309,4.573 -2.052,6.831 -0.718,2.178 -1.493,4.337 -2.329,6.472 -0.821,2.094 -1.699,4.164 -2.636,6.208 -0.937,2.041 -1.93,4.055 -2.978,6.041 -1.064,2.019 -2.184,4.008 -3.352,5.969 -1.206,2.025 -2.465,4.02 -3.764,5.987 -2.802,4.243 -5.796,8.358 -8.896,12.388 -1.703,2.214 -3.439,4.401 -5.197,6.571 -1.868,2.305 -3.761,4.591 -5.671,6.862 -4.046,4.81 -8.164,9.557 -12.314,14.277 -6.003,6.83 -12.069,13.603 -18.108,20.401 -2.051,2.31 -4.099,4.623 -6.139,6.943 -1.951,2.22 -3.894,4.446 -5.824,6.685 -1.813,2.104 -3.615,4.218 -5.396,6.349 -2.925,3.501 -5.793,7.05 -8.572,10.669 -2.524,3.287 -4.975,6.632 -7.306,10.059 -1.486,2.186 -2.924,4.406 -4.292,6.668 -1.556,2.575 -3.021,5.206 -4.345,7.908 -1.115,2.276 -2.13,4.603 -2.998,6.985 -0.385,1.056 -0.741,2.123 -1.067,3.198 -0.3,0.988 -0.574,1.983 -0.825,2.983 -0.23,0.914 -0.44,1.833 -0.634,2.754 -0.176,0.834 -0.338,1.671 -0.492,2.51 -0.15,0.817 -0.292,1.636 -0.437,2.454 -0.113,0.642 -0.228,1.284 -0.352,1.924 -0.104,0.535 -0.215,1.07 -0.346,1.599 -0.062,0.253 -0.129,0.505 -0.203,0.755 -0.056,0.188 -0.116,0.375 -0.182,0.559 -0.056,0.156 -0.116,0.309 -0.182,0.461 -0.097,0.224 -0.208,0.443 -0.344,0.645 -0.105,0.156 -0.225,0.302 -0.359,0.433 -0.131,0.128 -0.276,0.243 -0.43,0.343 -0.118,0.076 -0.241,0.144 -0.368,0.204 -0.187,0.088 -0.383,0.157 -0.583,0.211 -0.216,0.058 -0.437,0.098 -0.66,0.12 -0.238,0.023 -0.478,0.027 -0.717,0.012 -0.248,-0.014 -0.494,-0.047 -0.737,-0.099 -0.246,-0.053 -0.489,-0.125 -0.723,-0.214 -0.234,-0.089 -0.461,-0.196 -0.678,-0.321 -0.17,-0.098 -0.333,-0.206 -0.489,-0.325 -0.225,-0.17 -0.434,-0.36 -0.632,-0.561 -0.241,-0.244 -0.466,-0.502 -0.68,-0.77 -0.212,-0.265 -0.413,-0.539 -0.607,-0.817 -0.256,-0.367 -0.5,-0.741 -0.738,-1.119 -0.262,-0.417 -0.517,-0.838 -0.77,-1.261 -0.311,-0.521 -0.618,-1.044 -0.929,-1.565 -0.598,-0.998 -1.21,-1.989 -1.876,-2.942 -0.356,-0.509 -0.727,-1.009 -1.118,-1.492 -0.399,-0.493 -0.819,-0.97 -1.258,-1.428 -0.846,-0.885 -1.763,-1.702 -2.734,-2.448 -0.912,-0.701 -1.873,-1.338 -2.877,-1.899 -0.93,-0.519 -1.896,-0.973 -2.899,-1.33 -0.532,-0.191 -1.074,-0.353 -1.625,-0.479 -0.487,-0.111 -0.982,-0.193 -1.479,-0.234 -0.519,-0.043 -1.043,-0.043 -1.56,0.015 -0.271,0.03 -0.54,0.075 -0.805,0.137 -0.274,0.064 -0.544,0.145 -0.807,0.245 -0.54,0.204 -1.052,0.484 -1.513,0.831 -0.449,0.339 -0.851,0.743 -1.191,1.191 -0.314,0.414 -0.577,0.865 -0.79,1.339 -0.196,0.435 -0.349,0.888 -0.469,1.35 -0.113,0.44 -0.196,0.886 -0.254,1.337 -0.029,0.222 -0.053,0.445 -0.071,0.669 -0.037,0.444 -0.055,0.89 -0.059,1.336 -0.004,0.467 0.007,0.935 0.028,1.401 0.023,0.487 0.056,0.972 0.096,1.457 0.097,1.173 0.23,2.342 0.357,3.512 0.113,1.046 0.221,2.093 0.304,3.142 0.082,1.037 0.14,2.076 0.148,3.116 0.009,0.979 -0.026,1.96 -0.134,2.934 -0.05,0.453 -0.116,0.905 -0.201,1.354 -0.084,0.438 -0.185,0.874 -0.303,1.303 -0.226,0.825 -0.516,1.633 -0.873,2.409 -0.328,0.712 -0.712,1.398 -1.161,2.04 -0.393,0.561 -0.835,1.09 -1.335,1.558 -0.219,0.205 -0.449,0.399 -0.691,0.576 -0.218,0.159 -0.446,0.306 -0.684,0.436 -0.221,0.121 -0.45,0.227 -0.685,0.316 -0.231,0.087 -0.47,0.156 -0.711,0.21 -0.25,0.055 -0.503,0.092 -0.758,0.112 -0.274,0.022 -0.549,0.025 -0.823,0.01 C 55.674,14.684 55.372,14.647 55.073,14.595 54.739,14.536 54.408,14.456 54.083,14.36 53.312,14.133 52.569,13.817 51.855,13.447 50.977,12.992 50.143,12.455 49.344,11.871 48.884,11.535 48.436,11.183 47.997,10.82 47.524,10.429 47.063,10.024 46.611,9.609 45.603,8.683 44.641,7.706 43.717,6.697 42.746,5.637 41.815,4.541 40.918,3.417 39.988,2.253 39.095,1.06 38.236,-0.158 37.804,-0.771 37.38,-1.39 36.965,-2.015 c -0.418,-0.628 -0.827,-1.261 -1.23,-1.898 -0.811,-1.28 -1.599,-2.574 -2.381,-3.872 -1.075,-1.785 -2.139,-3.577 -3.245,-5.344 -0.785,-1.255 -1.59,-2.496 -2.44,-3.708 -0.418,-0.597 -0.847,-1.187 -1.29,-1.766 -0.436,-0.57 -0.886,-1.129 -1.35,-1.677 -0.884,-1.046 -1.82,-2.048 -2.811,-2.992 -0.919,-0.876 -1.885,-1.703 -2.907,-2.456 -0.945,-0.696 -1.937,-1.33 -2.986,-1.855 -0.569,-0.286 -1.154,-0.54 -1.755,-0.749 -0.528,-0.183 -1.067,-0.332 -1.615,-0.435 -0.56,-0.106 -1.13,-0.163 -1.7,-0.162 -0.576,0.002 -1.152,0.063 -1.715,0.188 -0.564,0.125 -1.115,0.315 -1.636,0.567 -0.515,0.249 -1.001,0.558 -1.446,0.917 -0.434,0.35 -0.829,0.747 -1.181,1.18 -0.342,0.421 -0.643,0.876 -0.902,1.352 -0.256,0.47 -0.472,0.96 -0.652,1.463 -0.266,0.743 -0.454,1.514 -0.578,2.294 -0.087,0.545 -0.143,1.094 -0.172,1.646 -0.03,0.565 -0.031,1.133 -0.013,1.698 0.038,1.127 0.155,2.25 0.3,3.368 0.157,1.209 0.344,2.413 0.521,3.619 0.076,0.523 0.15,1.046 0.218,1.57 0.063,0.494 0.12,0.989 0.167,1.485 0.042,0.456 0.075,0.913 0.093,1.37 0.015,0.404 0.019,0.809 0.004,1.212 -0.013,0.341 -0.04,0.681 -0.09,1.018 -0.042,0.29 -0.101,0.577 -0.18,0.858 -0.068,0.245 -0.15,0.485 -0.251,0.718 -0.087,0.201 -0.187,0.397 -0.304,0.584 -0.105,0.167 -0.222,0.326 -0.352,0.475 -0.124,0.141 -0.259,0.273 -0.404,0.392 -0.151,0.123 -0.311,0.233 -0.48,0.33 -0.188,0.108 -0.386,0.199 -0.588,0.276 -0.237,0.09 -0.481,0.162 -0.728,0.216 C 0.594,-0.068 0.298,-0.026 0,0" /></g><g
           transform="translate(820.8345,1223.269)"
           id="g40"><path
             id="path42"
             style="fill:#000000;fill-opacity:1;fill-rule:nonzero;stroke:none"
             d="M 0,0 C -0.354,0.031 -0.709,0.037 -1.063,0.026 -1.482,0.013 -1.899,-0.023 -2.314,-0.079 -2.793,-0.143 -3.27,-0.23 -3.742,-0.336 -4.278,-0.457 -4.81,-0.6 -5.336,-0.762 -6.116,-1 -6.883,-1.277 -7.639,-1.583 c -0.656,-0.264 -1.303,-0.548 -1.943,-0.85 -0.702,-0.331 -1.395,-0.681 -2.08,-1.046 -1.556,-0.832 -3.069,-1.741 -4.548,-2.704 -0.876,-0.57 -1.741,-1.16 -2.597,-1.761 -0.882,-0.619 -1.756,-1.249 -2.625,-1.885 -0.927,-0.679 -1.85,-1.365 -2.77,-2.054 -1.417,-1.06 -2.829,-2.125 -4.246,-3.186 -1.784,-1.335 -3.574,-2.662 -5.383,-3.964 -2.279,-1.64 -4.586,-3.241 -6.936,-4.779 -1.225,-0.801 -2.462,-1.585 -3.713,-2.348 -1.279,-0.78 -2.571,-1.539 -3.875,-2.276 -2.687,-1.52 -5.424,-2.951 -8.187,-4.327 -2.914,-1.451 -5.858,-2.84 -8.815,-4.199 -3.158,-1.451 -6.331,-2.868 -9.507,-4.28 -4.216,-1.873 -8.437,-3.737 -12.644,-5.63 -3.253,-1.462 -6.498,-2.943 -9.725,-4.462 -3.995,-1.881 -7.962,-3.819 -11.886,-5.845 -4.211,-2.175 -8.372,-4.45 -12.464,-6.842 -4.385,-2.563 -8.691,-5.259 -12.902,-8.098 -4.428,-2.985 -8.75,-6.128 -12.952,-9.423 -2.255,-1.769 -4.476,-3.583 -6.665,-5.433 -4.572,-3.863 -9.006,-7.889 -13.317,-12.041 -4.469,-4.304 -8.805,-8.744 -13.012,-13.303 -4.256,-4.614 -8.381,-9.348 -12.366,-14.198 -3.94,-4.795 -7.743,-9.701 -11.389,-14.723 -3.529,-4.862 -6.911,-9.831 -10.101,-14.922 -3.091,-4.932 -6.003,-9.979 -8.691,-15.143 -2.641,-5.074 -5.067,-10.261 -7.244,-15.55 -2.176,-5.289 -4.104,-10.68 -5.763,-16.152 -1.692,-5.576 -3.105,-11.237 -4.245,-16.951 -1.176,-5.896 -2.062,-11.849 -2.684,-17.828 -0.634,-6.108 -0.993,-12.243 -1.079,-18.382 -0.087,-6.184 0.101,-12.372 0.572,-18.539 0.468,-6.129 1.214,-12.238 2.259,-18.295 0.517,-2.993 1.106,-5.972 1.773,-8.934 0.66,-2.929 1.395,-5.841 2.205,-8.731 1.588,-5.665 3.462,-11.25 5.618,-16.723 2.079,-5.278 4.419,-10.454 7.027,-15.491 2.484,-4.794 5.21,-9.463 8.196,-13.961 1.425,-2.147 2.909,-4.255 4.455,-6.316 1.491,-1.986 3.04,-3.929 4.65,-5.82 1.955,-2.296 4,-4.514 6.143,-6.634 1.622,-1.605 3.3,-3.154 5.033,-4.639 1.703,-1.459 3.458,-2.856 5.263,-4.187 1.801,-1.33 3.652,-2.594 5.545,-3.791 1.92,-1.215 3.883,-2.361 5.881,-3.444 2.058,-1.115 4.152,-2.162 6.274,-3.149 2.211,-1.028 4.452,-1.99 6.715,-2.897 2.381,-0.954 4.786,-1.848 7.208,-2.693 2.565,-0.893 5.149,-1.732 7.745,-2.529 1.36,-0.417 2.723,-0.822 4.088,-1.218 2.378,-0.688 4.765,-1.346 7.159,-1.977 6.252,-1.647 12.554,-3.101 18.89,-4.385 7.138,-1.446 14.32,-2.676 21.528,-3.719 8.101,-1.171 16.237,-2.106 24.39,-2.841 9.14,-0.823 18.303,-1.392 27.474,-1.751 4.985,-0.194 9.973,-0.326 14.962,-0.4 5.245,-0.078 10.491,-0.093 15.737,-0.05 5.44,0.044 10.879,0.151 16.316,0.318 5.563,0.171 11.124,0.405 16.682,0.704 9.608,0.516 19.206,1.223 28.783,2.15 5.544,0.535 11.081,1.145 16.608,1.838 5.406,0.678 10.802,1.436 16.184,2.288 5.198,0.823 10.383,1.734 15.547,2.753 4.921,0.971 9.823,2.039 14.694,3.231 2.746,0.673 5.482,1.385 8.205,2.143 4.362,1.213 8.69,2.545 12.974,4.011 4.006,1.371 7.974,2.859 11.886,4.48 3.669,1.522 7.289,3.159 10.845,4.927 3.346,1.664 6.634,3.443 9.848,5.348 2.312,1.371 4.588,2.806 6.816,4.311 2.814,1.9 5.554,3.907 8.204,6.028 2.531,2.025 4.982,4.154 7.334,6.384 2.266,2.148 4.441,4.391 6.514,6.724 2.013,2.265 3.929,4.615 5.739,7.045 1.773,2.378 3.445,4.832 5.012,7.35 1.547,2.489 2.991,5.041 4.333,7.645 1.336,2.593 2.57,5.238 3.707,7.924 1.139,2.691 2.179,5.425 3.128,8.188 0.956,2.784 1.819,5.598 2.597,8.436 1.462,5.327 2.627,10.733 3.561,16.179 1.035,6.038 1.784,12.124 2.332,18.225 0.278,3.11 0.505,6.224 0.688,9.341 0.185,3.146 0.327,6.295 0.426,9.445 0.199,6.31 0.231,12.625 0.095,18.936 -0.134,6.191 -0.428,12.379 -0.9,18.554 -0.453,5.897 -1.066,11.781 -1.878,17.639 -0.385,2.777 -0.814,5.548 -1.295,8.309 -0.459,2.635 -0.966,5.261 -1.529,7.876 -0.633,2.945 -1.338,5.875 -2.132,8.781 -0.627,2.294 -1.309,4.573 -2.052,6.831 -0.718,2.178 -1.493,4.337 -2.329,6.472 -0.821,2.094 -1.699,4.164 -2.636,6.208 -0.937,2.041 -1.93,4.055 -2.978,6.041 -1.064,2.019 -2.184,4.008 -3.352,5.969 -1.206,2.025 -2.465,4.02 -3.764,5.987 -2.802,4.243 -5.796,8.358 -8.896,12.388 -1.703,2.214 -3.439,4.401 -5.197,6.571 -1.868,2.305 -3.761,4.591 -5.671,6.862 -4.046,4.81 -8.164,9.557 -12.314,14.277 -6.003,6.83 -12.069,13.603 -18.108,20.401 -2.051,2.31 -4.099,4.623 -6.139,6.943 -1.951,2.22 -3.894,4.446 -5.824,6.685 -1.813,2.104 -3.615,4.218 -5.396,6.349 -2.925,3.501 -5.793,7.05 -8.572,10.669 -2.524,3.287 -4.975,6.632 -7.306,10.059 -1.486,2.186 -2.924,4.406 -4.292,6.668 -1.556,2.575 -3.021,5.206 -4.345,7.908 -1.115,2.276 -2.13,4.603 -2.998,6.985 -0.385,1.056 -0.741,2.123 -1.067,3.198 -0.3,0.988 -0.574,1.983 -0.825,2.983 -0.23,0.914 -0.44,1.833 -0.634,2.754 -0.176,0.834 -0.338,1.671 -0.492,2.51 -0.15,0.817 -0.292,1.636 -0.437,2.454 -0.113,0.642 -0.228,1.284 -0.352,1.924 -0.104,0.535 -0.215,1.07 -0.346,1.599 -0.062,0.253 -0.129,0.505 -0.203,0.755 -0.056,0.188 -0.116,0.375 -0.182,0.559 -0.056,0.156 -0.116,0.309 -0.182,0.461 -0.097,0.224 -0.208,0.443 -0.344,0.645 -0.105,0.156 -0.225,0.302 -0.359,0.433 -0.131,0.128 -0.276,0.243 -0.43,0.343 -0.118,0.076 -0.241,0.144 -0.368,0.204 -0.187,0.088 -0.383,0.157 -0.583,0.211 -0.216,0.058 -0.437,0.098 -0.66,0.12 -0.238,0.023 -0.478,0.027 -0.717,0.012 -0.248,-0.014 -0.494,-0.047 -0.737,-0.099 -0.246,-0.053 -0.489,-0.125 -0.723,-0.214 -0.234,-0.089 -0.461,-0.196 -0.678,-0.321 -0.17,-0.098 -0.333,-0.206 -0.489,-0.325 -0.225,-0.17 -0.434,-0.36 -0.632,-0.561 -0.241,-0.244 -0.466,-0.502 -0.68,-0.77 -0.212,-0.265 -0.413,-0.539 -0.607,-0.817 -0.256,-0.367 -0.5,-0.741 -0.738,-1.119 -0.262,-0.417 -0.517,-0.838 -0.77,-1.261 -0.311,-0.521 -0.618,-1.044 -0.929,-1.565 -0.598,-0.998 -1.21,-1.989 -1.876,-2.942 -0.356,-0.509 -0.727,-1.009 -1.118,-1.492 -0.399,-0.493 -0.819,-0.97 -1.258,-1.428 -0.846,-0.885 -1.763,-1.702 -2.734,-2.448 -0.912,-0.701 -1.873,-1.338 -2.877,-1.899 -0.93,-0.519 -1.896,-0.973 -2.899,-1.33 -0.532,-0.191 -1.074,-0.353 -1.625,-0.479 -0.487,-0.111 -0.982,-0.193 -1.479,-0.234 -0.519,-0.043 -1.043,-0.043 -1.56,0.015 -0.271,0.03 -0.54,0.075 -0.805,0.137 -0.274,0.064 -0.544,0.145 -0.807,0.245 -0.54,0.204 -1.052,0.484 -1.513,0.831 -0.449,0.339 -0.851,0.743 -1.191,1.191 -0.314,0.414 -0.577,0.865 -0.79,1.339 -0.196,0.435 -0.349,0.888 -0.469,1.35 -0.113,0.44 -0.196,0.886 -0.254,1.337 -0.029,0.222 -0.053,0.445 -0.071,0.669 -0.037,0.444 -0.055,0.89 -0.059,1.336 -0.004,0.467 0.007,0.935 0.028,1.401 0.023,0.487 0.056,0.972 0.096,1.457 0.097,1.173 0.23,2.342 0.357,3.512 0.113,1.046 0.221,2.093 0.304,3.142 0.082,1.037 0.14,2.076 0.148,3.116 0.009,0.979 -0.026,1.96 -0.134,2.934 -0.05,0.453 -0.116,0.905 -0.201,1.354 -0.084,0.438 -0.185,0.874 -0.303,1.303 -0.226,0.825 -0.516,1.633 -0.873,2.409 -0.328,0.712 -0.712,1.398 -1.161,2.04 -0.393,0.561 -0.835,1.09 -1.335,1.558 -0.219,0.205 -0.449,0.399 -0.691,0.576 -0.218,0.159 -0.446,0.306 -0.684,0.436 -0.221,0.121 -0.45,0.227 -0.685,0.316 -0.231,0.087 -0.47,0.156 -0.711,0.21 -0.25,0.055 -0.503,0.092 -0.758,0.112 -0.274,0.022 -0.549,0.025 -0.823,0.01 C 55.674,14.684 55.372,14.647 55.073,14.595 54.739,14.536 54.408,14.456 54.083,14.36 53.312,14.133 52.569,13.817 51.855,13.447 50.977,12.992 50.143,12.455 49.344,11.871 48.884,11.535 48.436,11.183 47.997,10.82 47.524,10.429 47.063,10.024 46.611,9.609 45.603,8.683 44.641,7.706 43.717,6.697 42.746,5.637 41.815,4.541 40.918,3.417 39.988,2.253 39.095,1.06 38.236,-0.158 37.804,-0.771 37.38,-1.39 36.965,-2.015 c -0.418,-0.628 -0.827,-1.261 -1.23,-1.898 -0.811,-1.28 -1.599,-2.574 -2.381,-3.872 -1.075,-1.785 -2.139,-3.577 -3.245,-5.344 -0.785,-1.255 -1.59,-2.496 -2.44,-3.708 -0.418,-0.597 -0.847,-1.187 -1.29,-1.766 -0.436,-0.57 -0.886,-1.129 -1.35,-1.677 -0.884,-1.046 -1.82,-2.048 -2.811,-2.992 -0.919,-0.876 -1.885,-1.703 -2.907,-2.456 -0.945,-0.696 -1.937,-1.33 -2.986,-1.855 -0.569,-0.286 -1.154,-0.54 -1.755,-0.749 -0.528,-0.183 -1.067,-0.332 -1.615,-0.435 -0.56,-0.106 -1.13,-0.163 -1.7,-0.162 -0.576,0.002 -1.152,0.063 -1.715,0.188 -0.564,0.125 -1.115,0.315 -1.636,0.567 -0.515,0.249 -1.001,0.558 -1.446,0.917 -0.434,0.35 -0.829,0.747 -1.181,1.18 -0.342,0.421 -0.643,0.876 -0.902,1.352 -0.256,0.47 -0.472,0.96 -0.652,1.463 -0.266,0.743 -0.454,1.514 -0.578,2.294 -0.087,0.545 -0.143,1.094 -0.172,1.646 -0.03,0.565 -0.031,1.133 -0.013,1.698 0.038,1.127 0.155,2.25 0.3,3.368 0.157,1.209 0.344,2.413 0.521,3.619 0.076,0.523 0.15,1.046 0.218,1.57 0.063,0.494 0.12,0.989 0.167,1.485 0.042,0.456 0.075,0.913 0.093,1.37 0.015,0.404 0.019,0.809 0.004,1.212 -0.013,0.341 -0.04,0.681 -0.09,1.018 -0.042,0.29 -0.101,0.577 -0.18,0.858 -0.068,0.245 -0.15,0.485 -0.251,0.718 -0.087,0.201 -0.187,0.397 -0.304,0.584 -0.105,0.167 -0.222,0.326 -0.352,0.475 -0.124,0.141 -0.259,0.273 -0.404,0.392 -0.151,0.123 -0.311,0.233 -0.48,0.33 -0.188,0.108 -0.386,0.199 -0.588,0.276 -0.237,0.09 -0.481,0.162 -0.728,0.216 C 0.594,-0.068 0.298,-0.026 0,0 M 0.643,7.433 C 1.734,7.339 2.816,7.126 3.853,6.773 4.359,6.602 4.854,6.396 5.333,6.157 5.807,5.92 6.264,5.649 6.7,5.348 7.133,5.048 7.545,4.718 7.93,4.36 8.313,4.003 8.67,3.619 8.998,3.21 c 0.652,-0.812 1.188,-1.717 1.6,-2.674 0.415,-0.962 0.706,-1.976 0.888,-3.008 0.092,-0.526 0.157,-1.055 0.197,-1.587 0.039,-0.526 0.055,-1.055 0.052,-1.584 -0.002,-0.522 -0.023,-1.043 -0.056,-1.564 -0.033,-0.515 -0.078,-1.03 -0.132,-1.544 -0.105,-1.004 -0.242,-2.004 -0.389,-3.002 -0.148,-1.013 -0.305,-2.024 -0.443,-3.038 -0.057,-0.426 -0.112,-0.852 -0.158,-1.279 -0.043,-0.388 -0.078,-0.778 -0.105,-1.169 -0.024,-0.342 -0.04,-0.684 -0.042,-1.027 -0.002,-0.227 0.003,-0.454 0.015,-0.68 0.019,-0.341 0.055,-0.68 0.117,-1.015 0.047,-0.256 0.109,-0.509 0.194,-0.755 0.057,-0.164 0.125,-0.325 0.211,-0.476 0.027,-0.047 0.056,-0.094 0.089,-0.138 0.019,-0.026 0.039,-0.051 0.06,-0.076 0.016,-0.018 0.033,-0.037 0.053,-0.05 0.012,-0.003 0.023,-0.005 0.035,-0.007 0.043,-0.005 0.086,-0.006 0.129,-0.004 0.041,10e-4 0.082,0.005 0.122,0.01 0.065,0.008 0.131,0.02 0.195,0.033 0.193,0.041 0.381,0.099 0.565,0.166 0.12,0.044 0.238,0.091 0.355,0.142 0.202,0.087 0.401,0.184 0.595,0.287 0.313,0.165 0.617,0.346 0.914,0.537 0.344,0.222 0.678,0.458 1.005,0.704 0.364,0.275 0.719,0.564 1.064,0.861 0.377,0.326 0.745,0.662 1.102,1.009 0.383,0.371 0.755,0.753 1.118,1.144 0.383,0.413 0.755,0.836 1.116,1.268 0.378,0.452 0.744,0.913 1.1,1.383 0.375,0.494 0.738,0.998 1.093,1.507 0.762,1.096 1.487,2.218 2.194,3.351 0.375,0.601 0.746,1.206 1.114,1.811 0.651,1.074 1.295,2.152 1.943,3.228 0.798,1.326 1.602,2.649 2.429,3.958 0.428,0.676 0.861,1.348 1.303,2.015 0.443,0.67 0.896,1.335 1.357,1.992 0.927,1.324 1.891,2.622 2.894,3.888 0.986,1.245 2.009,2.46 3.075,3.637 1.093,1.206 2.23,2.372 3.423,3.478 0.538,0.499 1.087,0.986 1.649,1.458 0.546,0.458 1.103,0.901 1.675,1.327 1.092,0.812 2.235,1.558 3.436,2.2 1.122,0.601 2.294,1.111 3.508,1.493 0.583,0.184 1.175,0.338 1.774,0.457 0.59,0.118 1.185,0.202 1.784,0.248 1.182,0.093 2.378,0.039 3.543,-0.18 1.162,-0.217 2.294,-0.598 3.352,-1.126 0.53,-0.265 1.042,-0.567 1.533,-0.9 0.488,-0.332 0.955,-0.695 1.399,-1.084 0.445,-0.389 0.867,-0.804 1.266,-1.239 0.401,-0.438 0.779,-0.897 1.134,-1.373 0.721,-0.967 1.348,-2.004 1.884,-3.084 0.55,-1.11 1.006,-2.265 1.369,-3.449 0.373,-1.217 0.648,-2.464 0.826,-3.724 0.178,-1.253 0.259,-2.519 0.274,-3.785 0.016,-1.213 -0.029,-2.427 -0.11,-3.638 -0.076,-1.131 -0.183,-2.26 -0.301,-3.387 -0.066,-0.632 -0.136,-1.262 -0.204,-1.893 -0.051,-0.472 -0.1,-0.944 -0.146,-1.416 -0.041,-0.422 -0.078,-0.844 -0.108,-1.267 -0.027,-0.375 -0.047,-0.751 -0.056,-1.127 -0.008,-0.314 -0.008,-0.629 0.004,-0.943 0.005,-0.165 0.015,-0.329 0.03,-0.494 0.003,-0.034 0.007,-0.068 0.011,-0.102 0.137,0.036 0.273,0.077 0.409,0.121 0.316,0.105 0.626,0.229 0.93,0.365 0.368,0.166 0.727,0.349 1.079,0.546 0.39,0.22 0.77,0.456 1.139,0.708 0.394,0.268 0.777,0.553 1.146,0.852 0.382,0.31 0.749,0.636 1.102,0.978 0.354,0.343 0.693,0.701 1.012,1.076 0.331,0.387 0.64,0.791 0.935,1.205 0.322,0.451 0.627,0.914 0.923,1.381 0.315,0.5 0.62,1.006 0.922,1.514 0.361,0.606 0.719,1.215 1.084,1.819 0.334,0.554 0.675,1.105 1.031,1.646 0.369,0.56 0.754,1.109 1.165,1.64 0.437,0.566 0.902,1.109 1.404,1.618 0.518,0.524 1.075,1.011 1.673,1.443 0.583,0.421 1.204,0.789 1.852,1.1 0.666,0.319 1.362,0.577 2.074,0.772 0.705,0.193 1.426,0.324 2.154,0.39 0.726,0.066 1.458,0.066 2.185,0 0.733,-0.067 1.461,-0.202 2.168,-0.408 0.719,-0.208 1.417,-0.49 2.077,-0.841 0.394,-0.21 0.775,-0.445 1.14,-0.704 0.319,-0.227 0.625,-0.472 0.917,-0.734 0.598,-0.538 1.132,-1.148 1.587,-1.812 0.231,-0.335 0.441,-0.685 0.633,-1.044 0.185,-0.35 0.353,-0.709 0.506,-1.074 0.296,-0.712 0.533,-1.446 0.734,-2.19 0.075,-0.274 0.144,-0.549 0.209,-0.825 0.09,-0.376 0.173,-0.753 0.25,-1.131 0.163,-0.784 0.304,-1.573 0.443,-2.361 0.098,-0.553 0.194,-1.107 0.292,-1.66 0.077,-0.429 0.154,-0.859 0.234,-1.288 0.17,-0.913 0.351,-1.824 0.551,-2.73 0.217,-0.985 0.457,-1.965 0.722,-2.938 0.291,-1.063 0.612,-2.118 0.966,-3.161 0.392,-1.152 0.823,-2.29 1.288,-3.414 0.518,-1.253 1.078,-2.49 1.67,-3.71 0.668,-1.375 1.376,-2.73 2.117,-4.068 0.838,-1.516 1.717,-3.009 2.627,-4.483 0.789,-1.279 1.6,-2.543 2.43,-3.795 1.18,-1.78 2.398,-3.536 3.643,-5.272 1.398,-1.95 2.83,-3.875 4.289,-5.779 1.646,-2.149 3.326,-4.274 5.03,-6.377 1.404,-1.732 2.824,-3.45 4.258,-5.156 1.013,-1.207 2.032,-2.407 3.057,-3.604 2.186,-2.554 4.391,-5.09 6.609,-7.616 2.35,-2.68 4.712,-5.348 7.08,-8.013 4.264,-4.801 8.544,-9.59 12.804,-14.397 2.489,-2.807 4.971,-5.62 7.439,-8.444 2.427,-2.777 4.841,-5.565 7.234,-8.372 2.307,-2.705 4.594,-5.428 6.85,-8.176 2.13,-2.595 4.232,-5.214 6.29,-7.867 1.926,-2.481 3.812,-4.993 5.644,-7.543 1.733,-2.412 3.415,-4.859 5.033,-7.35 1.551,-2.388 3.043,-4.817 4.459,-7.288 1.377,-2.403 2.683,-4.847 3.909,-7.33 1.219,-2.47 2.358,-4.98 3.414,-7.524 1.074,-2.589 2.062,-5.215 2.967,-7.869 0.935,-2.742 1.781,-5.514 2.548,-8.308 1.042,-3.79 1.94,-7.619 2.726,-11.47 0.656,-3.213 1.235,-6.441 1.75,-9.68 0.533,-3.36 0.997,-6.73 1.4,-10.107 0.418,-3.498 0.772,-7.004 1.067,-10.514 0.306,-3.634 0.551,-7.273 0.737,-10.914 0.191,-3.709 0.321,-7.421 0.395,-11.134 0.074,-3.721 0.091,-7.443 0.05,-11.164 -0.04,-3.73 -0.138,-7.46 -0.293,-11.187 -0.156,-3.737 -0.369,-7.472 -0.648,-11.202 -0.276,-3.7 -0.618,-7.394 -1.043,-11.08 -0.418,-3.625 -0.916,-7.24 -1.51,-10.841 -0.588,-3.569 -1.27,-7.123 -2.063,-10.653 -0.629,-2.798 -1.326,-5.579 -2.1,-8.34 -0.97,-3.462 -2.062,-6.89 -3.287,-10.27 -1.225,-3.378 -2.583,-6.709 -4.083,-9.975 -1.51,-3.285 -3.164,-6.505 -4.965,-9.64 -1.825,-3.178 -3.802,-6.269 -5.926,-9.257 -2.17,-3.054 -4.496,-6 -6.959,-8.824 -2.532,-2.902 -5.21,-5.676 -8.016,-8.313 -2.922,-2.747 -5.982,-5.346 -9.154,-7.797 -3.714,-2.869 -7.582,-5.536 -11.571,-8.011 -3.842,-2.384 -7.793,-4.59 -11.827,-6.632 -4.265,-2.16 -8.624,-4.136 -13.048,-5.952 -4.736,-1.943 -9.548,-3.701 -14.413,-5.297 -4.819,-1.58 -9.689,-3.001 -14.595,-4.287 -5.688,-1.491 -11.422,-2.801 -17.185,-3.974 -6.074,-1.239 -12.179,-2.326 -18.303,-3.293 -6.351,-1.004 -12.722,-1.879 -19.107,-2.647 -6.752,-0.811 -13.518,-1.504 -20.293,-2.092 -6.603,-0.573 -13.215,-1.048 -19.832,-1.43 -6.498,-0.377 -13.001,-0.665 -19.507,-0.868 -6.338,-0.197 -12.678,-0.313 -19.019,-0.344 -6.118,-0.032 -12.236,0.016 -18.353,0.152 -11.121,0.245 -22.237,0.779 -33.325,1.669 -9.744,0.781 -19.467,1.836 -29.143,3.221 -8.478,1.213 -16.92,2.678 -25.3,4.443 -7.32,1.542 -14.592,3.312 -21.793,5.338 -3.364,0.946 -6.713,1.949 -10.037,3.028 -3.01,0.978 -6,2.017 -8.959,3.139 -2.814,1.066 -5.599,2.208 -8.345,3.44 -2.651,1.19 -5.264,2.464 -7.825,3.836 -2.496,1.339 -4.944,2.769 -7.328,4.298 -2.361,1.514 -4.659,3.124 -6.886,4.829 -2.241,1.717 -4.409,3.531 -6.497,5.43 -2.138,1.944 -4.193,3.979 -6.166,6.091 -1.767,1.89 -3.469,3.842 -5.11,5.844 -1.955,2.387 -3.823,4.845 -5.608,7.363 -1.848,2.604 -3.607,5.272 -5.281,7.992 -1.739,2.826 -3.388,5.709 -4.948,8.638 -3.23,6.065 -6.083,12.329 -8.568,18.735 -2.585,6.664 -4.773,13.482 -6.551,20.405 -0.912,3.553 -1.715,7.132 -2.414,10.733 -0.699,3.605 -1.293,7.232 -1.787,10.872 -0.497,3.662 -0.893,7.337 -1.191,11.02 -0.301,3.723 -0.503,7.453 -0.607,11.187 -0.103,3.729 -0.109,7.461 -0.019,11.19 0.089,3.682 0.273,7.362 0.552,11.034 0.277,3.641 0.648,7.274 1.114,10.894 0.465,3.603 1.025,7.194 1.685,10.766 0.65,3.513 1.396,7.008 2.243,10.478 0.826,3.388 1.748,6.752 2.765,10.088 1.006,3.299 2.104,6.57 3.293,9.809 1.182,3.221 2.454,6.411 3.81,9.563 1.356,3.154 2.796,6.271 4.315,9.349 1.527,3.095 3.132,6.152 4.808,9.169 3.425,6.164 7.147,12.161 11.096,18.003 2.033,3.007 4.126,5.974 6.271,8.902 2.165,2.955 4.382,5.872 6.649,8.749 2.29,2.908 4.629,5.776 7.016,8.604 2.413,2.861 4.874,5.68 7.381,8.458 2.497,2.767 5.04,5.493 7.629,8.174 2.54,2.632 5.124,5.22 7.753,7.762 2.581,2.496 5.205,4.947 7.876,7.347 2.622,2.358 5.289,4.667 8.003,6.918 1.335,1.108 2.68,2.201 4.039,3.279 2.171,1.724 4.373,3.408 6.605,5.052 5.054,3.72 10.262,7.232 15.597,10.537 4.91,3.042 9.926,5.909 15.023,8.623 4.704,2.505 9.476,4.879 14.291,7.162 2.256,1.07 4.521,2.119 6.792,3.156 1.526,0.697 3.055,1.389 4.586,2.077 2.049,0.922 4.101,1.837 6.155,2.749 2.639,1.173 5.28,2.341 7.918,3.516 1.836,0.819 3.671,1.641 5.502,2.472 3.399,1.543 6.784,3.118 10.131,4.771 3.077,1.52 6.123,3.107 9.102,4.813 1.422,0.814 2.829,1.655 4.219,2.524 1.35,0.844 2.684,1.714 4.005,2.603 2.559,1.722 5.068,3.517 7.551,5.347 1.91,1.408 3.804,2.836 5.701,4.26 1.102,0.827 2.204,1.652 3.311,2.47 1.059,0.782 2.122,1.555 3.196,2.314 1.099,0.776 2.211,1.536 3.341,2.267 0.988,0.64 1.99,1.258 3.008,1.849 0.941,0.546 1.895,1.069 2.865,1.563 0.903,0.46 1.819,0.895 2.749,1.298 0.83,0.36 1.671,0.694 2.523,0.997 0.837,0.297 1.685,0.564 2.543,0.791 0.805,0.214 1.62,0.392 2.442,0.526 0.778,0.127 1.562,0.216 2.349,0.253 0.75,0.036 1.503,0.026 2.251,-0.039" /></g><g
           transform="translate(899.9038,1181.1621)"
           id="g44"><path
             id="path46"
             style="fill:none;stroke:#020203;stroke-width:9.257;stroke-linecap:round;stroke-linejoin:round;stroke-miterlimit:4;stroke-dasharray:none;stroke-opacity:1"
             d="M 0,0 C -0.087,-8.675 0.175,-14.94 0.789,-18.796" /></g><g
           transform="translate(860.2739,1181.833)"
           id="g48"><path
             id="path50"
             style="fill:none;stroke:#020203;stroke-width:9.257;stroke-linecap:round;stroke-linejoin:round;stroke-miterlimit:4;stroke-dasharray:none;stroke-opacity:1"
             d="M 0,0 -4.809,-19.232" /></g><g
           transform="translate(817.6016,1181.2319)"
           id="g52"><path
             id="path54"
             style="fill:none;stroke:#020203;stroke-width:9.257;stroke-linecap:round;stroke-linejoin:round;stroke-miterlimit:4;stroke-dasharray:none;stroke-opacity:1"
             d="M 0,0 -12.221,-16.428" /></g><g
           transform="translate(739.1973,1004.4922)"
           id="g56"><path
             id="path58"
             style="fill:#000000;fill-opacity:1;fill-rule:nonzero;stroke:none"
             d="m 0,0 c 0,-12.399 -10.052,-22.451 -22.451,-22.451 -12.4,0 -22.451,10.052 -22.451,22.451 0,12.399 10.051,22.451 22.451,22.451 C -10.052,22.451 0,12.399 0,0" /></g><g
           transform="translate(812.1729,998.4258)"
           id="g60"><path
             id="path62"
             style="fill:#000000;fill-opacity:1;fill-rule:nonzero;stroke:none"
             d="m 0,0 c 5.598,0.133 10.312,0.73 14.833,4.729 1.002,0.888 1.878,1.861 2.672,2.937 0.774,1.047 1.25,2.248 2.551,2.924 2.606,1.354 5.729,-0.492 5.799,-3.428 C 25.953,3.046 18.287,-2.906 15.559,-4.417 10.608,-7.161 5.75,-8.044 0.188,-7.939 c -5.465,0.103 -10.426,0.726 -15.394,3.431 -2.786,1.517 -10.368,7.386 -10.461,11.485 -0.067,2.934 2.962,4.923 5.628,3.697 1.35,-0.621 1.845,-1.8 2.612,-2.859 0.784,-1.082 1.65,-2.063 2.642,-2.961 C -10.303,0.804 -5.765,-0.136 0,0" /></g><g
           transform="translate(922.208,1004.4922)"
           id="g64"><path
             id="path66"
             style="fill:#000000;fill-opacity:1;fill-rule:nonzero;stroke:none"
             d="m 0,0 c 0,-12.399 -10.052,-22.451 -22.452,-22.451 -12.399,0 -22.451,10.052 -22.451,22.451 0,12.399 10.052,22.451 22.451,22.451 C -10.052,22.451 0,12.399 0,0" /></g><g
           transform="translate(976.8838,968.9854)"
           id="g68"><path
             id="path70"
             style="fill:#f497a7;fill-opacity:1;fill-rule:nonzero;stroke:none"
             d="m 0,0 c 0,-14.035 -11.378,-25.413 -25.413,-25.413 -14.036,0 -25.414,11.378 -25.414,25.413 0,14.036 11.378,25.414 25.414,25.414 C -11.378,25.414 0,14.036 0,0" /></g><g
           transform="translate(691.0259,968.9854)"
           id="g72"><path
             id="path74"
             style="fill:#f497a7;fill-opacity:1;fill-rule:nonzero;stroke:none"
             d="m 0,0 c 0,-14.035 -11.378,-25.413 -25.413,-25.413 -14.036,0 -25.413,11.378 -25.413,25.413 0,14.036 11.377,25.414 25.413,25.414 C -11.378,25.414 0,14.036 0,0" /></g><g
           transform="translate(1121.8838,1084.1533)"
           id="g76"><path
             id="path78"
             style="fill:none;stroke:#000000;stroke-width:25;stroke-linecap:round;stroke-linejoin:round;stroke-miterlimit:4;stroke-dasharray:none;stroke-opacity:1"
             d="M 0,0 C -0.748,0.064 -1.501,0.074 -2.251,0.039 -3.038,0.001 -3.822,-0.087 -4.6,-0.214 -5.422,-0.348 -6.237,-0.527 -7.042,-0.74 -7.9,-0.967 -8.748,-1.234 -9.585,-1.531 c -0.853,-0.303 -1.693,-0.637 -2.523,-0.997 -0.93,-0.403 -1.846,-0.838 -2.749,-1.298 -0.97,-0.494 -1.924,-1.017 -2.866,-1.563 -1.017,-0.591 -2.019,-1.209 -3.007,-1.849 -1.13,-0.731 -2.242,-1.491 -3.341,-2.267 -1.075,-0.759 -2.138,-1.533 -3.196,-2.314 -1.108,-0.818 -2.21,-1.643 -3.311,-2.471 -1.898,-1.423 -3.791,-2.852 -5.701,-4.259 -2.483,-1.83 -4.992,-3.625 -7.55,-5.347 -1.321,-0.889 -2.656,-1.759 -4.006,-2.603 -1.391,-0.869 -2.797,-1.71 -4.22,-2.524 -2.978,-1.706 -6.023,-3.293 -9.101,-4.813 -3.347,-1.653 -6.732,-3.228 -10.131,-4.771 -1.83,-0.831 -3.665,-1.653 -5.502,-2.472 -2.639,-1.175 -5.279,-2.343 -7.919,-3.516 -2.053,-0.912 -4.105,-1.827 -6.154,-2.749 -1.531,-0.688 -3.06,-1.38 -4.586,-2.077 -2.272,-1.037 -4.536,-2.087 -6.792,-3.156 -4.815,-2.283 -9.587,-4.657 -14.291,-7.162 -5.097,-2.714 -10.114,-5.581 -15.023,-8.623 -5.335,-3.305 -10.543,-6.817 -15.597,-10.538 -2.233,-1.643 -4.435,-3.328 -6.606,-5.051 -1.357,-1.078 -2.704,-2.172 -4.038,-3.279 -2.714,-2.251 -5.381,-4.561 -8.003,-6.918 -2.671,-2.4 -5.295,-4.851 -7.876,-7.347 -2.629,-2.542 -5.213,-5.13 -7.753,-7.762 -2.589,-2.681 -5.132,-5.407 -7.629,-8.174 -2.507,-2.778 -4.968,-5.598 -7.381,-8.458 -2.387,-2.828 -4.726,-5.696 -7.016,-8.603 -2.267,-2.878 -4.484,-5.795 -6.65,-8.75 -2.145,-2.929 -4.237,-5.895 -6.27,-8.903 -3.949,-5.841 -7.671,-11.838 -11.096,-18.002 -1.677,-3.017 -3.281,-6.074 -4.808,-9.169 -1.519,-3.079 -2.959,-6.196 -4.315,-9.349 -1.356,-3.152 -2.628,-6.342 -3.81,-9.564 -1.189,-3.238 -2.287,-6.509 -3.293,-9.809 -1.017,-3.335 -1.939,-6.699 -2.766,-10.087 -0.847,-3.471 -1.592,-6.966 -2.242,-10.478 -0.66,-3.572 -1.22,-7.163 -1.685,-10.766 -0.466,-3.62 -0.837,-7.254 -1.114,-10.894 -0.279,-3.673 -0.463,-7.352 -0.552,-11.034 -0.091,-3.729 -0.084,-7.462 0.019,-11.19 0.104,-3.734 0.306,-7.464 0.607,-11.187 0.298,-3.683 0.694,-7.359 1.191,-11.02 0.494,-3.64 1.088,-7.267 1.787,-10.872 0.699,-3.601 1.502,-7.18 2.414,-10.733 1.778,-6.923 3.966,-13.741 6.551,-20.405 2.485,-6.406 5.338,-12.67 8.568,-18.735 1.56,-2.929 3.209,-5.812 4.948,-8.638 1.674,-2.72 3.433,-5.388 5.281,-7.992 1.785,-2.518 3.653,-4.976 5.608,-7.363 1.641,-2.003 3.343,-3.954 5.11,-5.845 1.973,-2.111 4.028,-4.146 6.166,-6.09 2.088,-1.9 4.256,-3.713 6.497,-5.43 2.226,-1.705 4.525,-3.315 6.886,-4.829 2.384,-1.529 4.832,-2.96 7.328,-4.298 2.561,-1.372 5.174,-2.646 7.825,-3.836 2.746,-1.232 5.531,-2.374 8.345,-3.44 2.959,-1.122 5.949,-2.162 8.959,-3.139 3.324,-1.079 6.673,-2.082 10.037,-3.028 7.2,-2.027 14.473,-3.796 21.792,-5.338 8.381,-1.765 16.823,-3.231 25.301,-4.444 9.677,-1.384 19.399,-2.439 29.143,-3.22 11.088,-0.89 22.204,-1.424 33.325,-1.669 6.117,-0.136 12.235,-0.184 18.353,-0.152 6.341,0.031 12.681,0.147 19.019,0.344 6.506,0.202 13.009,0.491 19.507,0.867 6.617,0.383 13.229,0.858 19.833,1.431 6.774,0.588 13.541,1.28 20.293,2.092 6.383,0.768 12.755,1.643 19.106,2.646 6.124,0.968 12.229,2.055 18.304,3.293 5.762,1.174 11.496,2.484 17.184,3.975 4.906,1.286 9.776,2.707 14.595,4.287 4.864,1.596 9.677,3.354 14.413,5.297 4.424,1.815 8.782,3.792 13.048,5.952 4.034,2.042 7.985,4.248 11.827,6.632 3.988,2.475 7.857,5.142 11.571,8.011 3.172,2.451 6.232,5.05 9.154,7.797 2.805,2.637 5.484,5.411 8.016,8.313 2.463,2.824 4.789,5.77 6.959,8.824 2.123,2.988 4.101,6.078 5.926,9.257 1.801,3.135 3.455,6.355 4.965,9.64 1.5,3.265 2.858,6.596 4.083,9.975 1.225,3.38 2.316,6.808 3.287,10.269 0.774,2.762 1.471,5.543 2.1,8.341 0.793,3.53 1.475,7.084 2.063,10.653 0.594,3.601 1.092,7.216 1.509,10.84 0.426,3.685 0.768,7.381 1.044,11.081 0.279,3.729 0.492,7.465 0.648,11.202 0.155,3.727 0.253,7.456 0.293,11.187 0.041,3.721 0.024,7.443 -0.05,11.164 -0.074,3.713 -0.205,7.424 -0.395,11.133 -0.186,3.642 -0.431,7.281 -0.737,10.915 -0.295,3.51 -0.649,7.015 -1.067,10.513 -0.403,3.378 -0.867,6.748 -1.4,10.108 -0.515,3.238 -1.094,6.466 -1.75,9.679 -0.786,3.852 -1.684,7.681 -2.726,11.471 -0.767,2.793 -1.613,5.565 -2.548,8.308 -0.905,2.653 -1.893,5.279 -2.967,7.869 -1.056,2.544 -2.196,5.053 -3.414,7.524 -1.226,2.484 -2.533,4.927 -3.909,7.329 -1.417,2.472 -2.908,4.901 -4.459,7.289 -1.618,2.491 -3.3,4.938 -5.033,7.349 -1.832,2.551 -3.718,5.062 -5.644,7.544 -2.058,2.652 -4.16,5.271 -6.29,7.867 -2.256,2.748 -4.543,5.471 -6.85,8.176 -2.393,2.807 -4.808,5.595 -7.234,8.371 -2.468,2.825 -4.95,5.638 -7.439,8.445 -4.26,4.806 -8.54,9.596 -12.804,14.397 -2.368,2.665 -4.73,5.333 -7.081,8.012 -2.217,2.527 -4.422,5.063 -6.608,7.616 -1.024,1.197 -2.045,2.398 -3.058,3.605 -1.433,1.706 -2.854,3.424 -4.257,5.156 -1.704,2.103 -3.384,4.227 -5.03,6.376 -1.459,1.905 -2.891,3.83 -4.29,5.78 -1.244,1.736 -2.462,3.492 -3.642,5.272 -0.829,1.252 -1.641,2.516 -2.43,3.795 -0.91,1.474 -1.789,2.967 -2.628,4.483 -0.739,1.337 -1.448,2.692 -2.116,4.067 -0.592,1.221 -1.152,2.457 -1.671,3.711 -0.464,1.124 -0.895,2.262 -1.287,3.413 -0.355,1.044 -0.676,2.099 -0.966,3.162 -0.266,0.973 -0.505,1.953 -0.722,2.938 -0.2,0.906 -0.381,1.817 -0.551,2.73 -0.08,0.429 -0.158,0.858 -0.234,1.288 -0.098,0.553 -0.194,1.107 -0.293,1.66 -0.138,0.788 -0.28,1.576 -0.441,2.36 -0.078,0.379 -0.161,0.756 -0.25,1.132 -0.067,0.276 -0.136,0.551 -0.21,0.825 -0.201,0.743 -0.439,1.478 -0.734,2.19 -0.153,0.365 -0.321,0.724 -0.506,1.074 -0.192,0.359 -0.402,0.709 -0.632,1.044 -0.456,0.664 -0.99,1.274 -1.589,1.812 -0.291,0.262 -0.598,0.507 -0.917,0.734 -0.364,0.258 -0.745,0.494 -1.14,0.704 -0.66,0.351 -1.357,0.633 -2.076,0.841 -0.707,0.206 -1.434,0.341 -2.169,0.408 -0.725,0.066 -1.458,0.066 -2.184,0 -0.728,-0.066 -1.45,-0.197 -2.154,-0.39 -0.713,-0.195 -1.408,-0.453 -2.074,-0.772 -0.648,-0.311 -1.269,-0.679 -1.852,-1.1 -0.598,-0.432 -1.155,-0.919 -1.673,-1.444 -0.502,-0.508 -0.967,-1.052 -1.405,-1.617 -0.41,-0.531 -0.795,-1.08 -1.164,-1.64 -0.356,-0.541 -0.697,-1.092 -1.032,-1.646 -0.364,-0.605 -0.722,-1.213 -1.083,-1.819 -0.302,-0.508 -0.607,-1.014 -0.922,-1.514 -0.296,-0.468 -0.601,-0.93 -0.923,-1.381 -0.295,-0.414 -0.605,-0.818 -0.934,-1.206 -0.32,-0.374 -0.659,-0.732 -1.013,-1.075 -0.352,-0.342 -0.721,-0.668 -1.101,-0.978 -0.371,-0.3 -0.753,-0.584 -1.147,-0.852 -0.369,-0.252 -0.749,-0.489 -1.14,-0.708 -0.35,-0.198 -0.71,-0.381 -1.079,-0.546 -0.303,-0.136 -0.613,-0.26 -0.929,-0.365 -0.136,-0.044 -0.272,-0.085 -0.41,-0.122 -0.003,0.035 -0.007,0.069 -0.01,0.103 -0.016,0.165 -0.025,0.329 -0.031,0.494 -0.011,0.314 -0.01,0.629 -0.002,0.943 0.008,0.376 0.029,0.752 0.055,1.127 0.03,0.423 0.068,0.845 0.108,1.267 0.046,0.472 0.095,0.944 0.146,1.416 0.067,0.63 0.138,1.261 0.204,1.893 0.118,1.127 0.226,2.256 0.301,3.387 0.081,1.211 0.126,2.424 0.11,3.638 -0.015,1.266 -0.096,2.532 -0.273,3.785 -0.179,1.26 -0.454,2.507 -0.827,3.724 -0.364,1.184 -0.819,2.339 -1.369,3.449 -0.537,1.08 -1.163,2.116 -1.884,3.083 -0.356,0.477 -0.734,0.936 -1.134,1.374 -0.399,0.435 -0.821,0.85 -1.266,1.239 -0.444,0.389 -0.911,0.752 -1.399,1.084 -0.491,0.333 -1.003,0.635 -1.533,0.9 -1.058,0.528 -2.19,0.908 -3.352,1.126 -1.165,0.218 -2.361,0.273 -3.543,0.18 -0.599,-0.046 -1.195,-0.13 -1.784,-0.248 C 52.189,14.325 51.597,14.171 51.014,13.987 49.8,13.605 48.628,13.095 47.506,12.494 46.306,11.852 45.162,11.106 44.069,10.293 43.498,9.868 42.94,9.424 42.396,8.967 41.833,8.495 41.284,8.008 40.746,7.509 39.553,6.403 38.416,5.237 37.323,4.03 36.257,2.854 35.233,1.639 34.248,0.394 33.245,-0.873 32.28,-2.17 31.354,-3.494 30.893,-4.151 30.44,-4.816 29.996,-5.486 c -0.441,-0.667 -0.875,-1.339 -1.302,-2.015 -0.827,-1.309 -1.632,-2.632 -2.429,-3.958 -0.648,-1.076 -1.291,-2.155 -1.944,-3.228 -0.367,-0.606 -0.738,-1.21 -1.113,-1.812 -0.707,-1.132 -1.432,-2.254 -2.194,-3.35 -0.355,-0.509 -0.718,-1.013 -1.093,-1.507 -0.356,-0.47 -0.722,-0.932 -1.1,-1.383 -0.361,-0.432 -0.733,-0.855 -1.116,-1.268 -0.363,-0.391 -0.735,-0.773 -1.118,-1.144 -0.358,-0.347 -0.725,-0.684 -1.102,-1.009 -0.345,-0.298 -0.7,-0.586 -1.064,-0.861 -0.326,-0.247 -0.661,-0.482 -1.005,-0.704 -0.297,-0.192 -0.602,-0.372 -0.914,-0.537 -0.194,-0.103 -0.393,-0.2 -0.595,-0.287 -0.117,-0.051 -0.235,-0.098 -0.355,-0.142 -0.185,-0.067 -0.372,-0.125 -0.565,-0.166 -0.064,-0.013 -0.13,-0.025 -0.195,-0.033 -0.041,-0.005 -0.081,-0.009 -0.122,-0.01 -0.043,-0.002 -0.087,-0.001 -0.13,0.004 -0.011,0.001 -0.022,0.003 -0.034,0.007 -0.021,0.013 -0.037,0.031 -0.053,0.05 -0.021,0.025 -0.041,0.05 -0.06,0.076 -0.033,0.044 -0.062,0.091 -0.089,0.138 -0.086,0.151 -0.154,0.312 -0.211,0.476 -0.085,0.246 -0.147,0.499 -0.194,0.754 -0.062,0.335 -0.098,0.675 -0.117,1.016 -0.012,0.226 -0.017,0.453 -0.015,0.68 0.002,0.343 0.018,0.685 0.042,1.027 0.026,0.39 0.062,0.78 0.104,1.169 0.047,0.427 0.102,0.853 0.159,1.279 0.138,1.014 0.295,2.025 0.444,3.037 0.145,0.999 0.284,1.999 0.388,3.003 0.054,0.514 0.099,1.029 0.132,1.544 0.033,0.521 0.054,1.042 0.057,1.564 0.002,0.529 -0.014,1.057 -0.054,1.584 -0.04,0.532 -0.103,1.061 -0.196,1.587 -0.182,1.031 -0.473,2.046 -0.888,3.008 -0.412,0.957 -0.948,1.862 -1.6,2.674 C 8.027,-3.814 7.67,-3.43 7.287,-3.073 6.902,-2.715 6.49,-2.385 6.058,-2.085 5.621,-1.784 5.164,-1.513 4.689,-1.276 4.211,-1.037 3.716,-0.832 3.21,-0.66 2.173,-0.307 1.091,-0.094 0,0 Z" /></g><g
           transform="translate(1121.2412,1076.7202)"
           id="g80"><path
             id="path82"
             style="fill:#ffffff;fill-opacity:1;fill-rule:nonzero;stroke:none"
             d="M 0,0 C -0.354,0.03 -0.709,0.037 -1.064,0.026 -1.482,0.013 -1.899,-0.024 -2.314,-0.079 -2.794,-0.143 -3.27,-0.23 -3.742,-0.336 -4.279,-0.457 -4.811,-0.601 -5.337,-0.762 -6.116,-1 -6.884,-1.278 -7.64,-1.583 c -0.655,-0.264 -1.302,-0.548 -1.942,-0.85 -0.702,-0.331 -1.396,-0.681 -2.08,-1.046 -1.556,-0.832 -3.069,-1.741 -4.548,-2.704 -0.877,-0.57 -1.741,-1.16 -2.598,-1.761 -0.881,-0.619 -1.755,-1.249 -2.625,-1.885 -0.927,-0.679 -1.849,-1.365 -2.77,-2.054 -1.416,-1.06 -2.829,-2.126 -4.245,-3.186 -1.784,-1.335 -3.575,-2.662 -5.383,-3.964 -2.279,-1.64 -4.586,-3.241 -6.937,-4.779 -1.225,-0.801 -2.462,-1.585 -3.712,-2.348 -1.28,-0.78 -2.572,-1.539 -3.876,-2.276 -2.687,-1.52 -5.423,-2.951 -8.187,-4.327 -2.914,-1.451 -5.857,-2.84 -8.814,-4.199 -3.159,-1.451 -6.331,-2.868 -9.507,-4.28 -4.217,-1.873 -8.437,-3.737 -12.645,-5.63 -3.253,-1.463 -6.497,-2.943 -9.724,-4.462 -3.996,-1.881 -7.963,-3.819 -11.886,-5.845 -4.212,-2.175 -8.372,-4.45 -12.465,-6.842 -4.384,-2.563 -8.69,-5.259 -12.901,-8.098 -4.428,-2.985 -8.75,-6.128 -12.952,-9.423 -2.255,-1.769 -4.476,-3.583 -6.666,-5.433 -4.572,-3.864 -9.006,-7.889 -13.317,-12.041 -4.468,-4.304 -8.805,-8.744 -13.012,-13.303 -4.256,-4.614 -8.381,-9.348 -12.366,-14.198 -3.939,-4.795 -7.743,-9.701 -11.388,-14.723 -3.529,-4.862 -6.911,-9.831 -10.101,-14.922 -3.091,-4.932 -6.003,-9.979 -8.691,-15.143 -2.642,-5.073 -5.067,-10.261 -7.245,-15.551 -2.176,-5.288 -4.104,-10.679 -5.763,-16.15 -1.691,-5.577 -3.104,-11.238 -4.244,-16.952 -1.177,-5.896 -2.063,-11.849 -2.684,-17.829 -0.635,-6.107 -0.993,-12.242 -1.08,-18.381 -0.087,-6.184 0.102,-12.372 0.573,-18.539 0.467,-6.129 1.213,-12.238 2.259,-18.295 0.516,-2.993 1.106,-5.972 1.773,-8.934 0.66,-2.929 1.395,-5.841 2.205,-8.731 1.587,-5.665 3.461,-11.25 5.617,-16.723 2.079,-5.278 4.419,-10.454 7.028,-15.491 2.483,-4.794 5.21,-9.463 8.196,-13.961 1.425,-2.148 2.908,-4.255 4.455,-6.316 1.491,-1.986 3.039,-3.929 4.65,-5.821 1.954,-2.295 3.999,-4.513 6.142,-6.633 1.622,-1.605 3.301,-3.154 5.034,-4.639 1.702,-1.459 3.458,-2.856 5.262,-4.187 1.802,-1.33 3.653,-2.594 5.545,-3.791 1.921,-1.215 3.884,-2.361 5.882,-3.444 2.058,-1.116 4.151,-2.162 6.273,-3.149 2.211,-1.028 4.453,-1.99 6.716,-2.897 2.381,-0.954 4.785,-1.848 7.207,-2.693 2.565,-0.893 5.149,-1.732 7.745,-2.529 1.36,-0.417 2.723,-0.822 4.089,-1.218 2.378,-0.688 4.765,-1.346 7.158,-1.977 6.252,-1.647 12.554,-3.101 18.891,-4.385 7.138,-1.446 14.319,-2.676 21.527,-3.719 8.102,-1.171 16.237,-2.106 24.39,-2.841 9.141,-0.823 18.304,-1.393 27.474,-1.751 4.986,-0.194 9.973,-0.326 14.963,-0.4 5.245,-0.078 10.491,-0.093 15.737,-0.05 5.439,0.044 10.878,0.151 16.315,0.318 5.564,0.171 11.124,0.405 16.682,0.704 9.608,0.516 19.206,1.223 28.784,2.149 5.544,0.536 11.08,1.146 16.607,1.839 5.406,0.678 10.802,1.436 16.184,2.288 5.199,0.823 10.384,1.734 15.548,2.753 4.921,0.971 9.822,2.039 14.694,3.231 2.745,0.673 5.482,1.384 8.205,2.143 4.362,1.213 8.69,2.545 12.973,4.011 4.007,1.371 7.975,2.859 11.887,4.48 3.669,1.521 7.289,3.159 10.845,4.927 3.345,1.664 6.633,3.442 9.847,5.348 2.313,1.371 4.588,2.806 6.817,4.311 2.813,1.9 5.553,3.906 8.204,6.028 2.531,2.025 4.981,4.154 7.334,6.384 2.265,2.148 4.44,4.391 6.513,6.724 2.013,2.265 3.929,4.615 5.74,7.045 1.772,2.378 3.445,4.832 5.011,7.35 1.547,2.489 2.992,5.041 4.333,7.645 1.336,2.593 2.571,5.238 3.707,7.924 1.139,2.691 2.179,5.425 3.128,8.188 0.956,2.784 1.82,5.598 2.598,8.436 1.462,5.326 2.627,10.733 3.56,16.179 1.036,6.038 1.785,12.124 2.333,18.225 0.278,3.11 0.504,6.224 0.688,9.34 0.185,3.146 0.326,6.296 0.426,9.446 0.199,6.31 0.23,12.625 0.094,18.936 -0.133,6.191 -0.427,12.379 -0.9,18.554 -0.452,5.896 -1.065,11.781 -1.878,17.639 -0.385,2.777 -0.813,5.547 -1.295,8.309 -0.459,2.635 -0.966,5.261 -1.528,7.877 -0.634,2.944 -1.339,5.874 -2.133,8.78 -0.627,2.294 -1.308,4.572 -2.052,6.831 -0.717,2.178 -1.493,4.337 -2.329,6.472 -0.82,2.093 -1.699,4.165 -2.635,6.209 -0.937,2.04 -1.93,4.054 -2.978,6.04 -1.064,2.018 -2.185,4.008 -3.353,5.969 -1.206,2.025 -2.464,4.02 -3.763,5.987 -2.802,4.243 -5.796,8.358 -8.897,12.388 -1.703,2.213 -3.438,4.402 -5.196,6.571 -1.868,2.305 -3.762,4.591 -5.672,6.862 -4.046,4.81 -8.164,9.557 -12.313,14.277 -6.003,6.83 -12.07,13.603 -18.109,20.401 -2.051,2.31 -4.098,4.623 -6.138,6.943 -1.952,2.22 -3.894,4.446 -5.824,6.685 -1.814,2.104 -3.616,4.218 -5.397,6.349 -2.925,3.501 -5.793,7.05 -8.571,10.668 -2.525,3.288 -4.975,6.633 -7.306,10.06 -1.486,2.186 -2.924,4.405 -4.292,6.668 -1.556,2.575 -3.022,5.206 -4.345,7.908 -1.116,2.276 -2.131,4.603 -2.999,6.985 -0.385,1.056 -0.741,2.123 -1.067,3.198 -0.299,0.988 -0.573,1.983 -0.825,2.983 -0.229,0.914 -0.44,1.833 -0.633,2.754 -0.176,0.834 -0.338,1.671 -0.492,2.51 -0.151,0.817 -0.293,1.636 -0.437,2.454 -0.114,0.642 -0.228,1.284 -0.352,1.924 -0.105,0.535 -0.215,1.07 -0.346,1.599 -0.063,0.253 -0.129,0.505 -0.203,0.755 -0.056,0.188 -0.117,0.374 -0.182,0.559 -0.057,0.156 -0.116,0.309 -0.182,0.461 -0.097,0.224 -0.209,0.443 -0.344,0.645 -0.105,0.156 -0.226,0.302 -0.36,0.433 -0.131,0.128 -0.275,0.243 -0.429,0.343 -0.119,0.076 -0.242,0.144 -0.369,0.204 -0.187,0.088 -0.382,0.157 -0.582,0.211 -0.216,0.058 -0.437,0.098 -0.661,0.12 -0.237,0.023 -0.477,0.027 -0.716,0.012 -0.249,-0.014 -0.495,-0.047 -0.738,-0.1 -0.246,-0.052 -0.488,-0.124 -0.723,-0.213 -0.234,-0.089 -0.46,-0.196 -0.677,-0.321 -0.17,-0.098 -0.333,-0.206 -0.489,-0.325 -0.225,-0.17 -0.435,-0.361 -0.633,-0.561 -0.24,-0.244 -0.466,-0.502 -0.679,-0.77 -0.212,-0.265 -0.414,-0.539 -0.608,-0.817 -0.256,-0.367 -0.499,-0.741 -0.738,-1.119 -0.262,-0.417 -0.517,-0.838 -0.769,-1.261 -0.311,-0.521 -0.618,-1.044 -0.93,-1.565 -0.597,-0.999 -1.21,-1.989 -1.876,-2.942 -0.355,-0.51 -0.726,-1.009 -1.118,-1.492 -0.398,-0.493 -0.818,-0.97 -1.258,-1.428 -0.846,-0.885 -1.762,-1.702 -2.733,-2.448 -0.912,-0.701 -1.873,-1.338 -2.878,-1.899 -0.929,-0.519 -1.896,-0.973 -2.899,-1.33 -0.532,-0.191 -1.074,-0.353 -1.625,-0.479 -0.487,-0.111 -0.981,-0.193 -1.479,-0.234 -0.519,-0.043 -1.042,-0.043 -1.56,0.015 -0.27,0.03 -0.54,0.075 -0.804,0.137 -0.275,0.064 -0.544,0.145 -0.808,0.245 -0.54,0.204 -1.052,0.483 -1.513,0.831 -0.449,0.339 -0.85,0.742 -1.191,1.191 -0.314,0.414 -0.576,0.865 -0.789,1.339 -0.196,0.435 -0.35,0.888 -0.469,1.35 -0.113,0.44 -0.196,0.886 -0.255,1.337 -0.029,0.222 -0.053,0.445 -0.071,0.669 -0.036,0.444 -0.055,0.89 -0.059,1.336 -0.004,0.467 0.007,0.935 0.029,1.401 0.022,0.487 0.055,0.972 0.095,1.457 0.097,1.173 0.231,2.342 0.357,3.512 0.113,1.046 0.221,2.093 0.305,3.142 0.082,1.037 0.139,2.076 0.148,3.116 C 64.344,2.42 64.31,3.401 64.202,4.374 64.151,4.828 64.085,5.28 64,5.729 c -0.083,0.438 -0.185,0.873 -0.303,1.303 -0.226,0.825 -0.515,1.633 -0.873,2.409 -0.327,0.712 -0.712,1.398 -1.161,2.04 -0.392,0.561 -0.835,1.09 -1.335,1.558 -0.219,0.205 -0.449,0.399 -0.69,0.575 -0.219,0.16 -0.447,0.307 -0.684,0.437 -0.222,0.121 -0.45,0.227 -0.685,0.316 -0.232,0.087 -0.47,0.156 -0.711,0.21 -0.25,0.055 -0.503,0.092 -0.758,0.112 -0.275,0.022 -0.55,0.025 -0.824,0.01 -0.303,-0.015 -0.605,-0.052 -0.904,-0.104 -0.334,-0.059 -0.664,-0.139 -0.99,-0.235 -0.77,-0.227 -1.514,-0.543 -2.228,-0.913 C 50.977,12.992 50.143,12.455 49.343,11.871 48.884,11.535 48.436,11.183 47.996,10.82 47.523,10.429 47.063,10.024 46.61,9.609 45.602,8.683 44.641,7.706 43.716,6.697 42.745,5.637 41.814,4.541 40.917,3.417 39.987,2.253 39.095,1.06 38.235,-0.158 37.804,-0.771 37.38,-1.39 36.964,-2.015 c -0.417,-0.628 -0.826,-1.261 -1.23,-1.898 -0.81,-1.28 -1.598,-2.574 -2.38,-3.872 -1.076,-1.785 -2.14,-3.577 -3.246,-5.344 -0.784,-1.255 -1.589,-2.496 -2.439,-3.708 -0.418,-0.597 -0.848,-1.187 -1.29,-1.766 -0.437,-0.57 -0.887,-1.129 -1.351,-1.678 -0.883,-1.045 -1.82,-2.047 -2.81,-2.991 -0.919,-0.876 -1.886,-1.703 -2.908,-2.457 -0.945,-0.695 -1.937,-1.329 -2.986,-1.855 -0.568,-0.285 -1.154,-0.539 -1.755,-0.748 -0.527,-0.183 -1.066,-0.332 -1.615,-0.435 -0.559,-0.106 -1.13,-0.163 -1.699,-0.162 -0.576,10e-4 -1.152,0.063 -1.715,0.188 -0.565,0.125 -1.116,0.315 -1.637,0.567 -0.514,0.249 -1.001,0.558 -1.446,0.917 -0.434,0.35 -0.829,0.747 -1.181,1.18 -0.341,0.421 -0.642,0.876 -0.902,1.352 -0.256,0.47 -0.472,0.96 -0.651,1.463 -0.267,0.743 -0.454,1.514 -0.578,2.294 -0.087,0.545 -0.143,1.094 -0.172,1.646 -0.03,0.565 -0.032,1.133 -0.013,1.698 0.037,1.127 0.155,2.25 0.3,3.368 0.156,1.209 0.344,2.413 0.52,3.619 0.076,0.523 0.151,1.046 0.218,1.569 0.064,0.495 0.121,0.99 0.167,1.486 0.042,0.456 0.075,0.913 0.094,1.37 0.015,0.404 0.018,0.809 0.004,1.212 -0.014,0.341 -0.04,0.681 -0.09,1.018 -0.043,0.29 -0.102,0.577 -0.181,0.858 -0.067,0.245 -0.149,0.485 -0.25,0.718 -0.087,0.201 -0.188,0.397 -0.304,0.584 -0.105,0.167 -0.223,0.326 -0.353,0.475 -0.124,0.141 -0.259,0.273 -0.404,0.392 -0.15,0.123 -0.311,0.233 -0.48,0.33 -0.187,0.108 -0.386,0.199 -0.588,0.276 -0.237,0.09 -0.48,0.162 -0.728,0.216 C 0.594,-0.068 0.297,-0.026 0,0" /></g><g
           transform="translate(1121.2412,1076.7202)"
           id="g84"><path
             id="path86"
             style="fill:#000000;fill-opacity:1;fill-rule:nonzero;stroke:none"
             d="M 0,0 C -0.354,0.03 -0.709,0.037 -1.064,0.026 -1.482,0.013 -1.899,-0.024 -2.314,-0.079 -2.794,-0.143 -3.27,-0.23 -3.742,-0.336 -4.279,-0.457 -4.811,-0.601 -5.337,-0.762 -6.116,-1 -6.884,-1.278 -7.64,-1.583 c -0.655,-0.264 -1.302,-0.548 -1.942,-0.85 -0.702,-0.331 -1.396,-0.681 -2.08,-1.046 -1.556,-0.832 -3.069,-1.741 -4.548,-2.704 -0.877,-0.57 -1.741,-1.16 -2.598,-1.761 -0.881,-0.619 -1.755,-1.249 -2.625,-1.885 -0.927,-0.679 -1.849,-1.365 -2.77,-2.054 -1.416,-1.06 -2.829,-2.126 -4.245,-3.186 -1.784,-1.335 -3.575,-2.662 -5.383,-3.964 -2.279,-1.64 -4.586,-3.241 -6.937,-4.779 -1.225,-0.801 -2.462,-1.585 -3.712,-2.348 -1.28,-0.78 -2.572,-1.539 -3.876,-2.276 -2.687,-1.52 -5.423,-2.951 -8.187,-4.327 -2.914,-1.451 -5.857,-2.84 -8.814,-4.199 -3.159,-1.451 -6.331,-2.868 -9.507,-4.28 -4.217,-1.873 -8.437,-3.737 -12.645,-5.63 -3.253,-1.463 -6.497,-2.943 -9.724,-4.462 -3.996,-1.881 -7.963,-3.819 -11.886,-5.845 -4.212,-2.175 -8.372,-4.45 -12.465,-6.842 -4.384,-2.563 -8.69,-5.259 -12.901,-8.098 -4.428,-2.985 -8.75,-6.128 -12.952,-9.423 -2.255,-1.769 -4.476,-3.583 -6.666,-5.433 -4.572,-3.864 -9.006,-7.889 -13.317,-12.041 -4.468,-4.304 -8.805,-8.744 -13.012,-13.303 -4.256,-4.614 -8.381,-9.348 -12.366,-14.198 -3.939,-4.795 -7.743,-9.701 -11.388,-14.723 -3.529,-4.862 -6.911,-9.831 -10.101,-14.922 -3.091,-4.932 -6.003,-9.979 -8.691,-15.143 -2.642,-5.073 -5.067,-10.261 -7.245,-15.551 -2.176,-5.288 -4.104,-10.679 -5.763,-16.15 -1.691,-5.577 -3.104,-11.238 -4.244,-16.952 -1.177,-5.896 -2.063,-11.849 -2.684,-17.829 -0.635,-6.107 -0.993,-12.242 -1.08,-18.381 -0.087,-6.184 0.102,-12.372 0.573,-18.539 0.467,-6.129 1.213,-12.238 2.259,-18.295 0.516,-2.993 1.106,-5.972 1.773,-8.934 0.66,-2.929 1.395,-5.841 2.205,-8.731 1.587,-5.665 3.461,-11.25 5.617,-16.723 2.079,-5.278 4.419,-10.454 7.028,-15.491 2.483,-4.794 5.21,-9.463 8.196,-13.961 1.425,-2.148 2.908,-4.255 4.455,-6.316 1.491,-1.986 3.039,-3.929 4.65,-5.821 1.954,-2.295 3.999,-4.513 6.142,-6.633 1.622,-1.605 3.301,-3.154 5.034,-4.639 1.702,-1.459 3.458,-2.856 5.262,-4.187 1.802,-1.33 3.653,-2.594 5.545,-3.791 1.921,-1.215 3.884,-2.361 5.882,-3.444 2.058,-1.116 4.151,-2.162 6.273,-3.149 2.211,-1.028 4.453,-1.99 6.716,-2.897 2.381,-0.954 4.785,-1.848 7.207,-2.693 2.565,-0.893 5.149,-1.732 7.745,-2.529 1.36,-0.417 2.723,-0.822 4.089,-1.218 2.378,-0.688 4.765,-1.346 7.158,-1.977 6.252,-1.647 12.554,-3.101 18.891,-4.385 7.138,-1.446 14.319,-2.676 21.527,-3.719 8.102,-1.171 16.237,-2.106 24.39,-2.841 9.141,-0.823 18.304,-1.393 27.474,-1.751 4.986,-0.194 9.973,-0.326 14.963,-0.4 5.245,-0.078 10.491,-0.093 15.737,-0.05 5.439,0.044 10.878,0.151 16.315,0.318 5.564,0.171 11.124,0.405 16.682,0.704 9.608,0.516 19.206,1.223 28.784,2.149 5.544,0.536 11.08,1.146 16.607,1.839 5.406,0.678 10.802,1.436 16.184,2.288 5.199,0.823 10.384,1.734 15.548,2.753 4.921,0.971 9.822,2.039 14.694,3.231 2.745,0.673 5.482,1.384 8.205,2.143 4.362,1.213 8.69,2.545 12.973,4.011 4.007,1.371 7.975,2.859 11.887,4.48 3.669,1.521 7.289,3.159 10.845,4.927 3.345,1.664 6.633,3.442 9.847,5.348 2.313,1.371 4.588,2.806 6.817,4.311 2.813,1.9 5.553,3.906 8.204,6.028 2.531,2.025 4.981,4.154 7.334,6.384 2.265,2.148 4.44,4.391 6.513,6.724 2.013,2.265 3.929,4.615 5.74,7.045 1.772,2.378 3.445,4.832 5.011,7.35 1.547,2.489 2.992,5.041 4.333,7.645 1.336,2.593 2.571,5.238 3.707,7.924 1.139,2.691 2.179,5.425 3.128,8.188 0.956,2.784 1.82,5.598 2.598,8.436 1.462,5.326 2.627,10.733 3.56,16.179 1.036,6.038 1.785,12.124 2.333,18.225 0.278,3.11 0.504,6.224 0.688,9.34 0.185,3.146 0.326,6.296 0.426,9.446 0.199,6.31 0.23,12.625 0.094,18.936 -0.133,6.191 -0.427,12.379 -0.9,18.554 -0.452,5.896 -1.065,11.781 -1.878,17.639 -0.385,2.777 -0.813,5.547 -1.295,8.309 -0.459,2.635 -0.966,5.261 -1.528,7.877 -0.634,2.944 -1.339,5.874 -2.133,8.78 -0.627,2.294 -1.308,4.572 -2.052,6.831 -0.717,2.178 -1.493,4.337 -2.329,6.472 -0.82,2.093 -1.699,4.165 -2.635,6.209 -0.937,2.04 -1.93,4.054 -2.978,6.04 -1.064,2.018 -2.185,4.008 -3.353,5.969 -1.206,2.025 -2.464,4.02 -3.763,5.987 -2.802,4.243 -5.796,8.358 -8.897,12.388 -1.703,2.213 -3.438,4.402 -5.196,6.571 -1.868,2.305 -3.762,4.591 -5.672,6.862 -4.046,4.81 -8.164,9.557 -12.313,14.277 -6.003,6.83 -12.07,13.603 -18.109,20.401 -2.051,2.31 -4.098,4.623 -6.138,6.943 -1.952,2.22 -3.894,4.446 -5.824,6.685 -1.814,2.104 -3.616,4.218 -5.397,6.349 -2.925,3.501 -5.793,7.05 -8.571,10.668 -2.525,3.288 -4.975,6.633 -7.306,10.06 -1.486,2.186 -2.924,4.405 -4.292,6.668 -1.556,2.575 -3.022,5.206 -4.345,7.908 -1.116,2.276 -2.131,4.603 -2.999,6.985 -0.385,1.056 -0.741,2.123 -1.067,3.198 -0.299,0.988 -0.573,1.983 -0.825,2.983 -0.229,0.914 -0.44,1.833 -0.633,2.754 -0.176,0.834 -0.338,1.671 -0.492,2.51 -0.151,0.817 -0.293,1.636 -0.437,2.454 -0.114,0.642 -0.228,1.284 -0.352,1.924 -0.105,0.535 -0.215,1.07 -0.346,1.599 -0.063,0.253 -0.129,0.505 -0.203,0.755 -0.056,0.188 -0.117,0.374 -0.182,0.559 -0.057,0.156 -0.116,0.309 -0.182,0.461 -0.097,0.224 -0.209,0.443 -0.344,0.645 -0.105,0.156 -0.226,0.302 -0.36,0.433 -0.131,0.128 -0.275,0.243 -0.429,0.343 -0.119,0.076 -0.242,0.144 -0.369,0.204 -0.187,0.088 -0.382,0.157 -0.582,0.211 -0.216,0.058 -0.437,0.098 -0.661,0.12 -0.237,0.023 -0.477,0.027 -0.716,0.012 -0.249,-0.014 -0.495,-0.047 -0.738,-0.1 -0.246,-0.052 -0.488,-0.124 -0.723,-0.213 -0.234,-0.089 -0.46,-0.196 -0.677,-0.321 -0.17,-0.098 -0.333,-0.206 -0.489,-0.325 -0.225,-0.17 -0.435,-0.361 -0.633,-0.561 -0.24,-0.244 -0.466,-0.502 -0.679,-0.77 -0.212,-0.265 -0.414,-0.539 -0.608,-0.817 -0.256,-0.367 -0.499,-0.741 -0.738,-1.119 -0.262,-0.417 -0.517,-0.838 -0.769,-1.261 -0.311,-0.521 -0.618,-1.044 -0.93,-1.565 -0.597,-0.999 -1.21,-1.989 -1.876,-2.942 -0.355,-0.51 -0.726,-1.009 -1.118,-1.492 -0.398,-0.493 -0.818,-0.97 -1.258,-1.428 -0.846,-0.885 -1.762,-1.702 -2.733,-2.448 -0.912,-0.701 -1.873,-1.338 -2.878,-1.899 -0.929,-0.519 -1.896,-0.973 -2.899,-1.33 -0.532,-0.191 -1.074,-0.353 -1.625,-0.479 -0.487,-0.111 -0.981,-0.193 -1.479,-0.234 -0.519,-0.043 -1.042,-0.043 -1.56,0.015 -0.27,0.03 -0.54,0.075 -0.804,0.137 -0.275,0.064 -0.544,0.145 -0.808,0.245 -0.54,0.204 -1.052,0.483 -1.513,0.831 -0.449,0.339 -0.85,0.742 -1.191,1.191 -0.314,0.414 -0.576,0.865 -0.789,1.339 -0.196,0.435 -0.35,0.888 -0.469,1.35 -0.113,0.44 -0.196,0.886 -0.255,1.337 -0.029,0.222 -0.053,0.445 -0.071,0.669 -0.036,0.444 -0.055,0.89 -0.059,1.336 -0.004,0.467 0.007,0.935 0.029,1.401 0.022,0.487 0.055,0.972 0.095,1.457 0.097,1.173 0.231,2.342 0.357,3.512 0.113,1.046 0.221,2.093 0.305,3.142 0.082,1.037 0.139,2.076 0.148,3.116 C 64.344,2.42 64.31,3.401 64.202,4.374 64.151,4.828 64.085,5.28 64,5.729 c -0.083,0.438 -0.185,0.873 -0.303,1.303 -0.226,0.825 -0.515,1.633 -0.873,2.409 -0.327,0.712 -0.712,1.398 -1.161,2.04 -0.392,0.561 -0.835,1.09 -1.335,1.558 -0.219,0.205 -0.449,0.399 -0.69,0.575 -0.219,0.16 -0.447,0.307 -0.684,0.437 -0.222,0.121 -0.45,0.227 -0.685,0.316 -0.232,0.087 -0.47,0.156 -0.711,0.21 -0.25,0.055 -0.503,0.092 -0.758,0.112 -0.275,0.022 -0.55,0.025 -0.824,0.01 -0.303,-0.015 -0.605,-0.052 -0.904,-0.104 -0.334,-0.059 -0.664,-0.139 -0.99,-0.235 -0.77,-0.227 -1.514,-0.543 -2.228,-0.913 C 50.977,12.992 50.143,12.455 49.343,11.871 48.884,11.535 48.436,11.183 47.996,10.82 47.523,10.429 47.063,10.024 46.61,9.609 45.602,8.683 44.641,7.706 43.716,6.697 42.745,5.637 41.814,4.541 40.917,3.417 39.987,2.253 39.095,1.06 38.235,-0.158 37.804,-0.771 37.38,-1.39 36.964,-2.015 c -0.417,-0.628 -0.826,-1.261 -1.23,-1.898 -0.81,-1.28 -1.598,-2.574 -2.38,-3.872 -1.076,-1.785 -2.14,-3.577 -3.246,-5.344 -0.784,-1.255 -1.589,-2.496 -2.439,-3.708 -0.418,-0.597 -0.848,-1.187 -1.29,-1.766 -0.437,-0.57 -0.887,-1.129 -1.351,-1.678 -0.883,-1.045 -1.82,-2.047 -2.81,-2.991 -0.919,-0.876 -1.886,-1.703 -2.908,-2.457 -0.945,-0.695 -1.937,-1.329 -2.986,-1.855 -0.568,-0.285 -1.154,-0.539 -1.755,-0.748 -0.527,-0.183 -1.066,-0.332 -1.615,-0.435 -0.559,-0.106 -1.13,-0.163 -1.699,-0.162 -0.576,10e-4 -1.152,0.063 -1.715,0.188 -0.565,0.125 -1.116,0.315 -1.637,0.567 -0.514,0.249 -1.001,0.558 -1.446,0.917 -0.434,0.35 -0.829,0.747 -1.181,1.18 -0.341,0.421 -0.642,0.876 -0.902,1.352 -0.256,0.47 -0.472,0.96 -0.651,1.463 -0.267,0.743 -0.454,1.514 -0.578,2.294 -0.087,0.545 -0.143,1.094 -0.172,1.646 -0.03,0.565 -0.032,1.133 -0.013,1.698 0.037,1.127 0.155,2.25 0.3,3.368 0.156,1.209 0.344,2.413 0.52,3.619 0.076,0.523 0.151,1.046 0.218,1.569 0.064,0.495 0.121,0.99 0.167,1.486 0.042,0.456 0.075,0.913 0.094,1.37 0.015,0.404 0.018,0.809 0.004,1.212 -0.014,0.341 -0.04,0.681 -0.09,1.018 -0.043,0.29 -0.102,0.577 -0.181,0.858 -0.067,0.245 -0.149,0.485 -0.25,0.718 -0.087,0.201 -0.188,0.397 -0.304,0.584 -0.105,0.167 -0.223,0.326 -0.353,0.475 -0.124,0.141 -0.259,0.273 -0.404,0.392 -0.15,0.123 -0.311,0.233 -0.48,0.33 -0.187,0.108 -0.386,0.199 -0.588,0.276 -0.237,0.09 -0.48,0.162 -0.728,0.216 C 0.594,-0.068 0.297,-0.026 0,0 M 0.643,7.433 C 1.733,7.339 2.815,7.126 3.853,6.773 4.358,6.602 4.854,6.396 5.332,6.157 5.807,5.92 6.264,5.649 6.7,5.348 7.133,5.048 7.545,4.718 7.93,4.36 8.313,4.003 8.67,3.619 8.998,3.21 c 0.651,-0.812 1.188,-1.717 1.6,-2.674 0.415,-0.962 0.706,-1.976 0.887,-3.008 0.093,-0.526 0.157,-1.055 0.197,-1.587 0.04,-0.526 0.055,-1.055 0.053,-1.584 -0.003,-0.522 -0.023,-1.043 -0.056,-1.564 -0.033,-0.515 -0.078,-1.03 -0.132,-1.544 -0.105,-1.004 -0.243,-2.004 -0.389,-3.002 -0.148,-1.013 -0.305,-2.024 -0.443,-3.038 -0.058,-0.426 -0.112,-0.852 -0.159,-1.279 -0.042,-0.389 -0.078,-0.779 -0.105,-1.169 -0.023,-0.342 -0.04,-0.684 -0.042,-1.027 -0.002,-0.227 0.003,-0.454 0.016,-0.68 0.018,-0.341 0.054,-0.68 0.117,-1.016 0.047,-0.255 0.108,-0.508 0.193,-0.754 0.058,-0.164 0.125,-0.325 0.211,-0.476 0.028,-0.047 0.057,-0.094 0.089,-0.138 0.02,-0.026 0.039,-0.051 0.061,-0.076 0.015,-0.019 0.032,-0.037 0.052,-0.05 0.012,-0.003 0.024,-0.005 0.035,-0.007 0.043,-0.005 0.087,-0.006 0.13,-0.004 0.041,10e-4 0.081,0.005 0.122,0.01 0.065,0.008 0.13,0.02 0.195,0.033 0.192,0.041 0.38,0.099 0.564,0.166 0.12,0.044 0.239,0.091 0.356,0.142 0.202,0.087 0.4,0.184 0.595,0.287 0.312,0.165 0.617,0.346 0.914,0.537 0.343,0.222 0.678,0.458 1.004,0.704 0.365,0.275 0.719,0.563 1.065,0.861 0.377,0.325 0.744,0.662 1.101,1.009 0.383,0.371 0.755,0.753 1.119,1.144 0.382,0.413 0.755,0.836 1.116,1.268 0.378,0.452 0.744,0.913 1.099,1.383 0.375,0.494 0.739,0.998 1.093,1.507 0.763,1.096 1.488,2.218 2.195,3.351 0.375,0.601 0.746,1.205 1.113,1.811 0.652,1.073 1.296,2.152 1.943,3.228 0.798,1.326 1.603,2.649 2.43,3.958 0.427,0.676 0.86,1.348 1.302,2.015 0.444,0.67 0.896,1.335 1.357,1.992 0.927,1.324 1.892,2.622 2.895,3.888 0.985,1.245 2.008,2.46 3.075,3.636 1.093,1.207 2.229,2.373 3.423,3.479 0.538,0.499 1.087,0.986 1.649,1.458 0.545,0.457 1.103,0.901 1.674,1.327 1.093,0.812 2.236,1.558 3.436,2.2 1.123,0.601 2.294,1.111 3.508,1.493 0.583,0.184 1.176,0.338 1.775,0.457 0.589,0.118 1.184,0.202 1.784,0.248 1.181,0.093 2.378,0.039 3.543,-0.18 1.162,-0.217 2.294,-0.598 3.351,-1.126 0.531,-0.265 1.042,-0.567 1.534,-0.9 0.488,-0.332 0.955,-0.695 1.399,-1.084 0.444,-0.389 0.866,-0.804 1.266,-1.239 0.4,-0.438 0.778,-0.897 1.133,-1.374 0.721,-0.967 1.348,-2.003 1.884,-3.083 0.551,-1.11 1.006,-2.265 1.369,-3.449 0.373,-1.217 0.649,-2.464 0.827,-3.724 0.177,-1.253 0.258,-2.519 0.274,-3.785 0.016,-1.214 -0.029,-2.427 -0.11,-3.638 -0.076,-1.131 -0.183,-2.26 -0.301,-3.387 -0.067,-0.632 -0.137,-1.262 -0.204,-1.893 -0.051,-0.472 -0.101,-0.944 -0.147,-1.416 -0.04,-0.422 -0.078,-0.844 -0.107,-1.267 -0.027,-0.375 -0.047,-0.751 -0.056,-1.127 -0.008,-0.314 -0.009,-0.629 0.003,-0.943 0.006,-0.165 0.015,-0.329 0.03,-0.494 0.003,-0.034 0.007,-0.068 0.011,-0.102 0.138,0.036 0.274,0.077 0.409,0.121 0.317,0.105 0.626,0.229 0.93,0.365 0.368,0.165 0.728,0.349 1.079,0.546 0.391,0.22 0.771,0.456 1.14,0.708 0.393,0.268 0.776,0.553 1.146,0.852 0.381,0.31 0.749,0.636 1.102,0.978 0.353,0.343 0.692,0.701 1.012,1.076 0.33,0.387 0.639,0.791 0.935,1.205 0.321,0.451 0.627,0.913 0.923,1.381 0.314,0.5 0.62,1.006 0.922,1.514 0.361,0.606 0.718,1.215 1.083,1.819 0.335,0.554 0.676,1.105 1.032,1.646 0.368,0.56 0.754,1.109 1.164,1.64 0.438,0.565 0.902,1.109 1.404,1.617 0.519,0.525 1.076,1.012 1.673,1.444 0.583,0.421 1.204,0.789 1.853,1.1 0.666,0.319 1.361,0.577 2.074,0.772 0.704,0.193 1.426,0.324 2.153,0.39 0.727,0.066 1.459,0.066 2.185,0 0.734,-0.067 1.462,-0.202 2.169,-0.408 0.719,-0.208 1.416,-0.49 2.076,-0.841 0.394,-0.21 0.775,-0.445 1.14,-0.704 0.319,-0.227 0.626,-0.472 0.917,-0.734 0.598,-0.538 1.132,-1.148 1.588,-1.812 0.231,-0.335 0.441,-0.685 0.632,-1.044 0.186,-0.35 0.354,-0.709 0.506,-1.074 0.296,-0.712 0.533,-1.447 0.735,-2.19 0.074,-0.274 0.143,-0.549 0.209,-0.825 0.089,-0.376 0.172,-0.753 0.25,-1.132 0.162,-0.783 0.303,-1.572 0.442,-2.36 0.099,-0.553 0.194,-1.107 0.293,-1.66 0.076,-0.429 0.153,-0.859 0.233,-1.288 0.17,-0.913 0.352,-1.824 0.552,-2.73 0.217,-0.985 0.456,-1.965 0.722,-2.938 0.29,-1.063 0.611,-2.118 0.966,-3.161 0.391,-1.152 0.823,-2.29 1.287,-3.414 0.518,-1.253 1.079,-2.49 1.671,-3.71 0.667,-1.375 1.376,-2.73 2.116,-4.068 0.839,-1.516 1.717,-3.009 2.628,-4.483 0.789,-1.279 1.6,-2.543 2.429,-3.795 1.181,-1.78 2.399,-3.536 3.643,-5.272 1.398,-1.95 2.831,-3.875 4.29,-5.779 1.645,-2.15 3.325,-4.274 5.029,-6.377 1.404,-1.732 2.824,-3.45 4.258,-5.156 1.013,-1.207 2.033,-2.407 3.058,-3.605 2.185,-2.553 4.39,-5.089 6.608,-7.615 2.351,-2.68 4.713,-5.348 7.08,-8.013 4.265,-4.801 8.544,-9.59 12.805,-14.397 2.488,-2.807 4.971,-5.62 7.438,-8.444 2.427,-2.777 4.841,-5.565 7.235,-8.372 2.306,-2.705 4.593,-5.428 6.849,-8.176 2.13,-2.595 4.233,-5.215 6.29,-7.867 1.926,-2.481 3.813,-4.993 5.645,-7.544 1.732,-2.411 3.415,-4.858 5.032,-7.349 1.552,-2.388 3.043,-4.817 4.459,-7.289 1.377,-2.402 2.684,-4.845 3.909,-7.329 1.219,-2.47 2.359,-4.98 3.414,-7.524 1.075,-2.59 2.063,-5.216 2.967,-7.869 0.936,-2.742 1.781,-5.515 2.549,-8.308 1.042,-3.79 1.939,-7.619 2.726,-11.471 0.656,-3.212 1.235,-6.441 1.75,-9.679 0.533,-3.36 0.997,-6.73 1.4,-10.108 0.418,-3.498 0.771,-7.003 1.066,-10.513 0.307,-3.634 0.551,-7.273 0.738,-10.914 0.19,-3.709 0.321,-7.421 0.394,-11.134 0.074,-3.721 0.092,-7.443 0.051,-11.164 -0.04,-3.731 -0.139,-7.46 -0.293,-11.187 -0.156,-3.737 -0.369,-7.472 -0.648,-11.202 -0.277,-3.7 -0.619,-7.395 -1.044,-11.081 -0.417,-3.624 -0.915,-7.239 -1.509,-10.84 -0.588,-3.569 -1.271,-7.123 -2.064,-10.653 -0.629,-2.798 -1.326,-5.579 -2.099,-8.341 -0.971,-3.461 -2.063,-6.889 -3.287,-10.269 -1.225,-3.378 -2.583,-6.709 -4.083,-9.975 -1.51,-3.285 -3.164,-6.505 -4.965,-9.64 -1.825,-3.178 -3.803,-6.269 -5.926,-9.257 -2.171,-3.054 -4.496,-6 -6.959,-8.824 -2.532,-2.902 -5.211,-5.676 -8.017,-8.313 -2.921,-2.747 -5.981,-5.346 -9.154,-7.797 -3.714,-2.869 -7.582,-5.536 -11.57,-8.011 -3.842,-2.384 -7.793,-4.59 -11.827,-6.632 -4.266,-2.16 -8.624,-4.136 -13.048,-5.952 -4.737,-1.943 -9.549,-3.701 -14.413,-5.297 -4.82,-1.58 -9.69,-3.001 -14.595,-4.287 -5.688,-1.491 -11.423,-2.801 -17.185,-3.974 -6.075,-1.239 -12.179,-2.326 -18.303,-3.293 -6.352,-1.004 -12.723,-1.879 -19.107,-2.647 -6.752,-0.811 -13.518,-1.504 -20.293,-2.092 -6.603,-0.573 -13.216,-1.048 -19.833,-1.43 -6.498,-0.377 -13.001,-0.665 -19.507,-0.868 -6.337,-0.197 -12.677,-0.313 -19.018,-0.344 -6.118,-0.032 -12.236,0.016 -18.354,0.152 -11.121,0.245 -22.236,0.779 -33.325,1.669 -9.743,0.781 -19.466,1.836 -29.142,3.22 -8.478,1.214 -16.92,2.679 -25.301,4.444 -7.32,1.542 -14.592,3.312 -21.792,5.338 -3.364,0.946 -6.713,1.949 -10.037,3.028 -3.011,0.977 -6,2.017 -8.959,3.139 -2.814,1.066 -5.6,2.208 -8.345,3.44 -2.651,1.19 -5.264,2.464 -7.825,3.836 -2.497,1.338 -4.944,2.769 -7.328,4.298 -2.361,1.514 -4.66,3.124 -6.887,4.829 -2.241,1.717 -4.408,3.531 -6.497,5.43 -2.137,1.944 -4.192,3.979 -6.165,6.09 -1.768,1.891 -3.469,3.843 -5.11,5.845 -1.956,2.387 -3.824,4.845 -5.609,7.363 -1.848,2.604 -3.606,5.272 -5.28,7.992 -1.74,2.826 -3.388,5.709 -4.948,8.638 -3.23,6.065 -6.083,12.329 -8.569,18.735 -2.585,6.664 -4.773,13.482 -6.55,20.405 -0.912,3.553 -1.716,7.132 -2.415,10.733 -0.699,3.605 -1.293,7.232 -1.787,10.872 -0.497,3.661 -0.893,7.337 -1.191,11.02 -0.301,3.723 -0.502,7.453 -0.606,11.187 -0.104,3.728 -0.11,7.461 -0.02,11.19 0.09,3.682 0.273,7.362 0.553,11.034 0.276,3.64 0.647,7.274 1.114,10.894 0.465,3.603 1.025,7.194 1.685,10.767 0.649,3.511 1.395,7.006 2.242,10.477 0.826,3.388 1.748,6.752 2.765,10.087 1.006,3.3 2.105,6.571 3.293,9.81 1.183,3.221 2.454,6.411 3.81,9.563 1.356,3.153 2.797,6.271 4.315,9.349 1.527,3.095 3.132,6.152 4.808,9.169 3.426,6.164 7.147,12.161 11.097,18.003 2.032,3.007 4.125,5.973 6.27,8.902 2.165,2.955 4.383,5.872 6.649,8.75 2.29,2.907 4.63,5.775 7.017,8.603 2.413,2.86 4.874,5.68 7.381,8.458 2.497,2.767 5.04,5.493 7.629,8.174 2.54,2.632 5.123,5.22 7.752,7.762 2.581,2.496 5.206,4.947 7.876,7.347 2.623,2.358 5.29,4.667 8.004,6.918 1.334,1.108 2.68,2.201 4.038,3.279 2.171,1.724 4.373,3.408 6.605,5.051 5.055,3.721 10.263,7.233 15.598,10.538 4.909,3.042 9.926,5.909 15.022,8.623 4.704,2.505 9.477,4.879 14.291,7.162 2.256,1.069 4.521,2.119 6.792,3.156 1.527,0.697 3.056,1.389 4.586,2.077 2.049,0.922 4.102,1.837 6.155,2.749 2.639,1.173 5.28,2.341 7.919,3.516 1.836,0.819 3.671,1.641 5.501,2.472 3.4,1.543 6.785,3.118 10.131,4.771 3.078,1.52 6.123,3.107 9.102,4.813 1.423,0.814 2.829,1.655 4.22,2.524 1.349,0.844 2.684,1.714 4.005,2.603 2.559,1.722 5.068,3.517 7.55,5.347 1.91,1.408 3.804,2.836 5.701,4.26 1.102,0.827 2.204,1.652 3.312,2.47 1.058,0.782 2.121,1.555 3.195,2.314 1.1,0.776 2.211,1.536 3.341,2.267 0.988,0.64 1.99,1.258 3.008,1.849 0.941,0.546 1.895,1.069 2.865,1.563 0.903,0.46 1.819,0.895 2.749,1.298 0.83,0.36 1.671,0.694 2.524,0.997 0.837,0.297 1.684,0.564 2.543,0.791 0.804,0.213 1.62,0.392 2.442,0.526 0.777,0.127 1.561,0.215 2.349,0.253 0.75,0.035 1.503,0.026 2.251,-0.039" /></g><g
           transform="translate(1200.3096,1034.6133)"
           id="g88"><path
             id="path90"
             style="fill:none;stroke:#020203;stroke-width:9.257;stroke-linecap:round;stroke-linejoin:round;stroke-miterlimit:4;stroke-dasharray:none;stroke-opacity:1"
             d="M 0,0 C -0.087,-8.675 0.176,-14.94 0.789,-18.796" /></g><g
           transform="translate(1160.6797,1035.2842)"
           id="g92"><path
             id="path94"
             style="fill:none;stroke:#020203;stroke-width:9.257;stroke-linecap:round;stroke-linejoin:round;stroke-miterlimit:4;stroke-dasharray:none;stroke-opacity:1"
             d="M 0,0 -4.808,-19.232" /></g><g
           transform="translate(1118.0078,1034.6831)"
           id="g96"><path
             id="path98"
             style="fill:none;stroke:#020203;stroke-width:9.257;stroke-linecap:round;stroke-linejoin:round;stroke-miterlimit:4;stroke-dasharray:none;stroke-opacity:1"
             d="M 0,0 -12.221,-16.428" /></g><g
           transform="translate(1039.6035,857.9434)"
           id="g100"><path
             id="path102"
             style="fill:#000000;fill-opacity:1;fill-rule:nonzero;stroke:none"
             d="m 0,0 c 0,-12.399 -10.052,-22.451 -22.451,-22.451 -12.4,0 -22.451,10.052 -22.451,22.451 0,12.399 10.051,22.451 22.451,22.451 C -10.052,22.451 0,12.399 0,0" /></g><g
           transform="translate(1112.5791,851.877)"
           id="g104"><path
             id="path106"
             style="fill:#000000;fill-opacity:1;fill-rule:nonzero;stroke:none"
             d="m 0,0 c 5.598,0.133 10.313,0.73 14.833,4.729 1.002,0.887 1.878,1.861 2.673,2.937 0.773,1.047 1.249,2.248 2.55,2.924 2.606,1.353 5.729,-0.492 5.798,-3.428 C 25.953,3.046 18.286,-2.906 15.559,-4.418 10.608,-7.161 5.75,-8.044 0.187,-7.939 c -5.464,0.103 -10.425,0.725 -15.393,3.431 -2.785,1.517 -10.368,7.386 -10.461,11.486 -0.066,2.933 2.962,4.922 5.628,3.696 1.35,-0.621 1.845,-1.8 2.612,-2.859 0.784,-1.082 1.65,-2.063 2.643,-2.961 C -10.304,0.804 -5.766,-0.137 0,0" /></g><g
           transform="translate(1222.6143,857.9434)"
           id="g108"><path
             id="path110"
             style="fill:#000000;fill-opacity:1;fill-rule:nonzero;stroke:none"
             d="m 0,0 c 0,-12.399 -10.052,-22.451 -22.451,-22.451 -12.4,0 -22.451,10.052 -22.451,22.451 0,12.399 10.051,22.451 22.451,22.451 C -10.052,22.451 0,12.399 0,0" /></g><g
           transform="translate(1277.29,822.4365)"
           id="g112"><path
             id="path114"
             style="fill:#f497a7;fill-opacity:1;fill-rule:nonzero;stroke:none"
             d="m 0,0 c 0,-14.035 -11.378,-25.413 -25.413,-25.413 -14.035,0 -25.413,11.378 -25.413,25.413 0,14.035 11.378,25.413 25.413,25.413 C -11.378,25.413 0,14.035 0,0" /></g><g
           transform="translate(991.4316,822.4365)"
           id="g116"><path
             id="path118"
             style="fill:#f497a7;fill-opacity:1;fill-rule:nonzero;stroke:none"
             d="m 0,0 c 0,-14.035 -11.377,-25.413 -25.413,-25.413 -14.035,0 -25.413,11.378 -25.413,25.413 0,14.035 11.378,25.413 25.413,25.413 C -11.377,25.413 0,14.035 0,0" /></g></g></g><path
       transform="matrix(0.75000002,0,0,-0.75000002,0,1920)"
       id="path957"
       d="m 1216.4239,1928.0011 c -151.4785,-17.624 -275.78857,-77.6516 -383.15904,-185.0221 -96.71906,-96.7191 -155.76111,-209.1734 -178.83415,-340.6163 -10.10107,-57.5439 -10.04104,-155.7625 0.13,-212.7136 47.84265,-267.88744 257.59793,-475.24987 525.65129,-519.65475 52.6353,-8.71941 147.6435,-8.69776 200.0014,0.0456 79.6678,13.30385 159.7479,42.42927 224.4154,81.6207 283.4803,171.80189 389.1101,525.03235 245.6412,821.43435 -31.1569,64.3691 -66.9324,113.7575 -123.0589,169.884 -94.7849,94.7849 -200.3724,151.4815 -327.9629,176.1039 -50.8393,9.811 -138.428,14.0835 -182.8243,8.9182 z m 364.0655,-223.3602 c 87.6412,-11.6683 135.8074,-29.9647 176.2937,-66.967 44.0048,-40.2179 61.4727,-91.3679 61.4727,-180.0056 0,-95.8779 -15.2269,-136.1593 -79.5801,-210.5215 -61.2906,-70.8232 -76.9664,-92.1833 -82.1825,-111.9834 -7.7552,-29.4385 -14.6267,-36.9812 -33.6909,-36.9812 -12.1683,0 -19.6236,-2.898 -27.3613,-10.6357 -17.5635,-17.5635 -48.2372,-12.2866 -65.3335,11.2396 -4.9294,6.7834 -6.6762,6.8741 -20.5726,1.0678 -19.7029,-8.2324 -33.7768,-3.7087 -74.6392,23.9909 l -30.8026,20.8803 -13.8769,-24.624 c -7.6323,-13.5433 -32.628,-46.2099 -55.5461,-72.5925 -57.6712,-66.38932 -72.7859,-87.8159 -80.3842,-113.95303 -7.0436,-24.22932 -14.8072,-31.06995 -35.2618,-31.06995 -8.0334,0 -16.8353,-3.98618 -23.4848,-10.63569 -17.8021,-17.80203 -49.9841,-11.62166 -68.2352,13.10418 -4.8317,6.54577 -7.099,7.11145 -11.4201,2.84935 -7.5542,-7.45094 -35.6195,-6.62464 -51.3539,1.51195 -7.2641,3.75639 -20.9596,12.4455 -30.4346,19.30914 -9.475,6.86364 -42.20368,24.51785 -72.73042,39.23157 -77.22965,37.22428 -124.49975,76.68258 -167.67086,139.96198 -21.06712,30.8798 -38.15086,67.767 -45.16568,97.522 -8.30591,35.2313 -8.26048,105.2871 0.0892,137.6326 14.93586,57.8591 49.38807,108.8227 89.02937,131.6974 45.72977,26.3879 126.07808,40.3701 232.18959,40.4058 l 74.6351,0.025 4.9022,23.3713 c 15.9119,75.8604 67.4144,131.4187 141.6949,152.8532 65.4909,18.8981 200.7491,25.121 289.4204,13.3154 z"
       style="font-variation-settings:normal;opacity:1;vector-effect:none;fill:#84d6ec;fill-opacity:1;stroke-width:12.7978;stroke-linecap:butt;stroke-linejoin:miter;stroke-miterlimit:4;stroke-dasharray:none;stroke-dashoffset:0;stroke-opacity:1;stop-color:#000000;stop-opacity:1" /></g></svg>
