<?xml version="1.0" encoding="UTF-8"?>
<svg width="210mm" height="297mm" version="1.1" viewBox="0 0 210 297" xmlns="http://www.w3.org/2000/svg" xmlns:cc="http://creativecommons.org/ns#" xmlns:dc="http://purl.org/dc/elements/1.1/" xmlns:rdf="http://www.w3.org/1999/02/22-rdf-syntax-ns#">
 <defs>
  <clipPath id="clipPath849">
   <path d="m0 1e3h1711.9v-1e3h-1711.9z"/>
  </clipPath>
 </defs>
 <metadata>
  <rdf:RDF>
   <cc:Work rdf:about="">
    <dc:format>image/svg+xml</dc:format>
    <dc:type rdf:resource="http://purl.org/dc/dcmitype/StillImage"/>
    <dc:title/>
   </cc:Work>
  </rdf:RDF>
 </metadata>
 <g transform="matrix(.35278 0 0 -.35278 -196.13 325.81)" clip-path="url(#clipPath849)"></g>
 <g transform="matrix(.35278 0 0 -.35307 -121.11 114.81)">
  <path d="m0 0s267.2-43.217 461.7 30.043c194.5 73.261 182.19 162.02 179.34 184.16-2.843 22.141-33.289 34.999-48.389 31.167-17.062-4.331-56.975-31.722-69.497-67.722 0 0-28.957 78.974-89.218 63.748 0 0-70.826-21.053 7.435-124.96 0 0 49.696-69.013 143.22-58.094 0 0 109.84 6.147 201.29 129.52 2.038 2.749 3.882 5.633 5.564 8.614 10.554 18.717 43.818 84.161 12.618 115.92-9.185 9.347-22.329 13.594-35.361 12.212-21.051-2.232-58.274-15.152-83.159-74.554 0 0-36.924 82.974-98.092 75.139-61.169-7.834-34.952-93.299-21.071-114.06 13.881-20.761 59.176-103.12 264.47-157.52 205.3-54.391 451.43-9 451.43-9" fill="none" stroke="#231f20" stroke-miterlimit="10"/>
 </g>
</svg>
